<?xml version="1.0" encoding="UTF-8" standalone="no"?>
<svg width="195px" height="53px" viewBox="0 0 195 53" version="1.1" xmlns="http://www.w3.org/2000/svg" xmlns:xlink="http://www.w3.org/1999/xlink" xmlns:sketch="http://www.bohemiancoding.com/sketch/ns">
    <!-- Generator: Sketch 3.3.3 (12081) - http://www.bohemiancoding.com/sketch -->
    <title>logo</title>
    <desc>Created with Sketch.</desc>
    <defs></defs>
    <g id="Page-1" stroke="none" stroke-width="1" fill="none" fill-rule="evenodd" sketch:type="MSPage">
        <g id="logo" sketch:type="MSLayerGroup">
            <g id="THE-CURE" sketch:type="MSShapeGroup">
                <g id="Desktop-HD">
                    <g id="logo">
                        <g id="Group">
                            <path d="M26.2889088,28.1458649 C26.2889088,32.4351047 25.2941575,35.884402 23.3048343,38.4937568 C21.315511,41.1031115 18.5375691,42.4076993 14.9710083,42.4076993 C13.4476381,42.4076993 12.094489,42.1262264 10.9115608,41.5632804 C9.7286326,41.0003345 8.71610497,40.1738209 7.87379834,39.0835608 L7.87379834,52.996777 L0.0506353591,52.996777 L0.0506353591,12.8387128 L7.64970994,12.8387128 L7.5780663,16.2701047 C8.43832873,15.0011486 9.4733011,14.0227973 10.683163,13.3346926 C11.8928453,12.6465878 13.3043508,12.302625 14.9173204,12.302625 C18.5196133,12.302625 21.315511,13.7055135 23.3048343,16.5114696 C25.2941575,19.3174257 26.2889088,23.0079088 26.2889088,27.583098 L26.2889088,28.1458649 L26.2889088,28.1458649 Z M18.4388122,27.5829189 C18.4388122,24.8485845 17.981837,22.6324324 17.0677072,20.9346419 C16.1537569,19.2368514 14.7557182,18.3879561 12.8739503,18.3879561 C11.6910221,18.3879561 10.6829834,18.6291419 9.8496547,19.1116926 C9.01632597,19.5942432 8.35770718,20.282348 7.87379834,21.1758277 L7.87379834,33.8827568 C8.35770718,34.7047939 9.01632597,35.3304088 9.8496547,35.7592432 C10.6829834,36.1880777 11.7091575,36.4025845 12.9278177,36.4025845 C14.8275414,36.4025845 16.2210912,35.6609426 17.1081077,34.1774797 C17.9953039,32.6941959 18.4388122,30.683598 18.4388122,28.1456858 L18.4388122,27.5829189 L18.4388122,27.5829189 Z" id="Shape" fill="#3D3C3E"></path>
                            <path d="M35.4179972,41.8447534 L27.5680801,41.8447534 L27.5680801,18.7847399 L35.4179972,18.7847399 L35.4179972,41.8447534 L35.4179972,41.8447534 Z" id="Shape" fill="#3D3C3E"></path>
                            <path d="M50.2776796,22.0605338 L50.4389227,22.0605338 L54.9016575,12.8387128 L63.7730801,12.8387128 L55.0090331,27.1809426 L64.0686326,41.8447534 L55.2239641,41.8447534 L50.4656768,32.220777 L45.7073895,41.8447534 L36.8359669,41.8447534 L45.8957459,27.1809426 L37.1049448,12.8387128 L45.9226796,12.8387128 L50.2776796,22.0605338 L50.2776796,22.0605338 Z" id="Shape" fill="#3D3C3E"></path>
                            <path d="M74.7796271,42.4076993 C70.4424033,42.4076993 67.055221,41.0807297 64.617721,38.4267905 C62.180221,35.7728514 60.9615608,32.3548885 60.9615608,28.172723 L60.9615608,27.1003682 C60.9615608,22.7574122 62.144489,19.2010405 64.5101657,16.4308953 C66.8758425,13.66075 70.1287155,12.2845405 74.2687845,12.3024459 C78.1757873,12.3024459 81.1733287,13.4954831 83.2612293,15.8813784 C85.3491298,18.2672736 86.3930801,21.4796824 86.3930801,25.5187838 L86.3930801,29.5668378 L69.0533425,29.5668378 L68.972721,29.7276284 C69.098232,31.7113682 69.7029834,33.3198108 70.7873343,34.5529561 C71.8716851,35.7861014 73.4801657,36.4027635 75.6129558,36.4027635 C77.3693923,36.4027635 78.8613398,36.2240676 80.0889779,35.8666757 C81.316616,35.5092838 82.5846547,34.9640642 83.8929144,34.231375 L86.0167265,39.0567027 C84.8517541,40.0038986 83.2746961,40.7992568 81.2851934,41.442598 C79.2956906,42.0859392 77.1275276,42.4076993 74.7796271,42.4076993 L74.7796271,42.4076993 L74.7796271,42.4076993 Z M74.2689641,18.3342399 C72.6917265,18.3342399 71.4775552,18.8748041 70.6262707,19.9561115 C69.7749862,21.0374189 69.2596547,22.4716419 69.0804558,24.2587804 L69.1341436,24.3928919 L78.7045856,24.3928919 L78.7045856,23.8030878 C78.7045856,22.1052973 78.3551657,20.769375 77.6561464,19.7953209 C76.9573066,18.8212669 75.8280663,18.3342399 74.2689641,18.3342399 L74.2689641,18.3342399 L74.2689641,18.3342399 Z" id="Shape" fill="#3D3C3E"></path>
                            <path d="M96.6291436,41.8447534 L88.7792265,41.8447534 L88.7792265,0.0245304054 L96.6291436,0.0245304054 L96.6291436,41.8447534 L96.6291436,41.8447534 Z" id="Shape" fill="#3D3C3E"></path>
                            <path d="M112.86442,36.4027635 C114.226547,36.4027635 115.310898,35.9961318 116.117293,35.1830473 C116.923867,34.3697838 117.326975,33.2841791 117.326975,31.925875 L124.477873,31.925875 L124.531561,32.0866655 C124.603204,35.0176014 123.510055,37.4706419 121.251754,39.4454291 C118.993633,41.4202162 116.197735,42.4076993 112.864061,42.4076993 C108.562749,42.4076993 105.238232,41.0359662 102.890331,38.2926791 C100.54261,35.5493919 99.3686602,32.041902 99.3686602,27.7705676 L99.3686602,26.9662568 C99.3686602,22.7128277 100.538122,19.2053378 102.877044,16.4441453 C105.215967,13.6829527 108.527017,12.3022669 112.810373,12.3022669 C116.358978,12.3022669 119.217541,13.3209054 121.386064,15.3583615 C123.554586,17.3958176 124.603025,20.0766149 124.531381,23.4007534 L124.477693,23.5615439 L117.326796,23.5615439 C117.326796,22.0603547 116.927997,20.8137804 116.13058,19.8218209 C115.333163,18.8298615 114.226367,18.3340608 112.810552,18.3340608 C110.785318,18.3340608 109.347058,19.142848 108.495773,20.7602432 C107.644489,22.3776385 107.218757,24.44625 107.218757,26.9662568 L107.218757,27.7705676 C107.218757,30.3441115 107.644489,32.426152 108.495773,34.0168682 C109.347058,35.6075845 110.803273,36.4027635 112.86442,36.4027635 L112.86442,36.4027635 L112.86442,36.4027635 Z" id="Shape" fill="#1BCEFF"></path>
                            <path d="M144.557666,37.5553345 C143.661492,39.1102399 142.523453,40.3075743 141.14355,41.1475169 C139.763467,41.9874595 138.159475,42.4075203 136.331395,42.4075203 C133.266699,42.4075203 130.869599,41.3709764 129.140097,39.2978885 C127.410594,37.2248007 126.545843,34.0077365 126.545843,29.6470541 L126.545843,12.8385338 L134.368826,12.8385338 L134.368826,29.7005912 C134.368826,32.2383243 134.713757,33.976402 135.403798,34.9146453 C136.09384,35.8528885 137.164724,36.3220101 138.616271,36.3220101 C139.870843,36.3220101 140.946215,36.1209324 141.84221,35.718777 C142.738204,35.3166216 143.473135,34.7223412 144.046644,33.9361149 L144.046644,12.8383547 L151.896561,12.8383547 L151.896561,41.8443953 L144.503619,41.8443953 L144.557666,37.5553345 L144.557666,37.5553345 Z" id="Shape" fill="#1BCEFF"></path>
                            <path d="M169.144724,19.5673851 L166.268204,19.4869899 C165.103232,19.4869899 164.144392,19.7281757 163.391685,20.2107264 C162.638978,20.693277 162.06547,21.3724291 161.67116,22.2481824 L161.67116,41.8447534 L153.848177,41.8447534 L153.848177,12.8387128 L161.422472,12.8387128 L161.482983,17.1279527 C162.164047,15.6088581 163.046754,14.4247736 164.130925,13.5758784 C165.215276,12.7269831 166.465359,12.3024459 167.881174,12.3024459 C168.275483,12.3024459 168.63837,12.3337804 168.970014,12.3962703 C169.301657,12.4587601 169.63761,12.5348581 169.978052,12.6242061 L169.144724,19.5673851 L169.144724,19.5673851 Z" id="Shape" fill="#1BCEFF"></path>
                            <path d="M183.251699,42.4076993 C178.914475,42.4076993 175.527293,41.0807297 173.089793,38.4267905 C170.652293,35.7728514 169.433633,32.3548885 169.433633,28.172723 L169.433633,27.1003682 C169.433633,22.7574122 170.616561,19.2010405 172.982238,16.4308953 C175.347914,13.66075 178.600787,12.2845405 182.740856,12.3024459 C186.647859,12.3024459 189.645401,13.4954831 191.733301,15.8813784 C193.821202,18.2672736 194.865152,21.4796824 194.865152,25.5187838 L194.865152,29.5668378 L177.525414,29.5668378 L177.444793,29.7276284 C177.570304,31.7113682 178.175055,33.3198108 179.259406,34.5529561 C180.343757,35.7861014 181.952238,36.4027635 184.085028,36.4027635 C185.841464,36.4027635 187.333412,36.2240676 188.56105,35.8666757 C189.788688,35.5092838 191.056727,34.9640642 192.364986,34.231375 L194.488798,39.0567027 C193.323826,40.0038986 191.746768,40.7992568 189.757265,41.442598 C187.767762,42.0859392 185.599599,42.4076993 183.251699,42.4076993 L183.251699,42.4076993 L183.251699,42.4076993 Z M182.741036,18.3342399 C181.163798,18.3342399 179.949627,18.8748041 179.098343,19.9561115 C178.247058,21.0374189 177.731727,22.4716419 177.552528,24.2587804 L177.606215,24.3928919 L187.176657,24.3928919 L187.176657,23.8030878 C187.176657,22.1052973 186.827238,20.769375 186.128218,19.7953209 C185.429378,18.8212669 184.300318,18.3342399 182.741036,18.3342399 L182.741036,18.3342399 L182.741036,18.3342399 Z" id="Shape" fill="#1BCEFF"></path>
                            <rect id="Rectangle-path" fill="#A1B5B2" x="27.6012983" y="13.0338818" width="3.89766575" height="3.88672635"></rect>
                            <rect id="Rectangle-path" fill="#1BCEFF" x="31.4991436" y="9.14715541" width="3.89766575" height="3.88672635"></rect>
                        </g>
                    </g>
                </g>
            </g>
        </g>
    </g>
</svg>