<?xml version="1.0" encoding="UTF-8" standalone="no"?>
<svg width="460px" height="424px" viewBox="0 0 460 424" version="1.1" xmlns="http://www.w3.org/2000/svg" xmlns:xlink="http://www.w3.org/1999/xlink" xmlns:sketch="http://www.bohemiancoding.com/sketch/ns">
    <!-- Generator: Sketch 3.3.3 (12081) - http://www.bohemiancoding.com/sketch -->
    <title>pixel-loader</title>
    <desc>Created with Sketch.</desc>
    <defs></defs>
    <g id="Page-1" stroke="none" stroke-width="1" fill="none" fill-rule="evenodd" sketch:type="MSPage">
        <g id="pixel-loader" sketch:type="MSLayerGroup" transform="translate(10.000000, 0.000000)">
            <path d="M430.092,385.985 C429.353,383.219 430.599,381.087 432.489,379.947 C431.119,377.257 430.104,374.285 429.48,371.335 C427.297,366.974 425.392,362.488 423.933,357.849 C419.163,353.401 414.317,348.774 415.753,343.027 C411.19,338.645 408.823,332.367 408.671,326.015 C405.322,324.09 402.745,321.34 400.917,318.148 C396.865,313.843 393.531,309.011 390.341,303.77 C381.192,288.739 373.38,272.248 369.594,254.986 C369.134,252.888 369.773,251.153 370.933,249.931 C365.095,239.457 360.128,228.51 354.66,217.826 C354.397,217.312 354.225,216.803 354.118,216.304 C352.242,213.912 350.239,211.613 348.037,209.461 C347.811,209.24 347.619,209.012 347.441,208.782 C346.299,209.782 345.279,210.813 344.461,211.874 C333.335,201.787 318.621,195.597 302.427,195.597 C286.302,195.597 271.647,201.738 260.54,211.742 C249.135,199.861 233.122,192.436 215.355,192.436 C199.867,192.436 185.717,198.082 174.777,207.39 C164.386,199.734 151.589,195.161 137.694,195.161 C124.005,195.161 111.369,199.602 101.062,207.052 C97.433,203.215 93.305,199.879 88.807,197.079 C86.853,209.24 79.708,221.342 74.2,232.187 C70.846,238.791 67.231,245.38 64.672,252.346 C62.034,259.527 59.946,266.929 57.57,274.202 C53.085,287.927 49.626,302.38 43.243,315.384 C40.128,321.73 35.736,327.458 33.263,334.1 C30.86,340.556 28.833,347.102 25.844,353.327 C24.563,355.996 22.185,356.616 20.038,355.974 C17.285,364.111 10.475,372.473 3.863,376.038 C4.824,380.68 8.711,393.476 7.197,397.946 C7.981,404.975 17.113,405.275 18.563,412.235 C18.749,412.23 18.926,412.206 19.117,412.206 C21.47,412.206 23.582,412.569 25.567,413.088 C26.493,413.269 27.4,413.514 28.292,413.813 C28.566,413.808 28.826,413.779 29.106,413.784 C42.884,413.956 55.95,418.244 69.557,418.911 C82.055,419.524 94.549,419.048 107.057,419.043 C136.372,419.033 165.691,419.038 194.996,418.504 C238.838,417.7 283.303,416.029 327.032,421.033 C337.487,415.686 351.823,415.965 362.571,415.362 C368.908,415.009 375.123,417.974 381.196,418.93 C384.632,419.469 390.871,414.46 393.797,413.117 C397.891,411.242 403.403,411.824 409.083,412.927 C409.967,411.658 411.437,410.804 413.501,410.888 C417.107,411.035 420.629,409.957 424.161,408.938 C424.262,408.437 424.36,407.935 424.498,407.436 C425.983,402.043 429.322,397.641 433.617,394.611 C432.173,391.851 430.901,389.009 430.092,385.985 L430.092,385.985 Z" id="liquid" opacity="0.5" fill="#3D3C3E" sketch:type="MSShapeGroup"></path>
            <path d="M265,15.994 L439.14,396.275 C439.14,405.889 429.279,413.683 417.116,413.683 L22.884,413.683 C10.72,413.683 0.86,405.889 0.86,396.275 L176,15.994" id="outerGlow" stroke="#3D3C3E" stroke-width="20" sketch:type="MSShapeGroup"></path>
            <rect id="outerGlow" fill="#3D3C3E" sketch:type="MSShapeGroup" x="137.501" y="0.982" width="165.5" height="20"></rect>
            <circle id="bubble" opacity="0.6" fill="#3D3C3E" sketch:type="MSShapeGroup" cx="204.769" cy="372.507" r="46"></circle>
            <circle id="bubble" opacity="0.6" fill="#3D3C3E" sketch:type="MSShapeGroup" cx="397.924" cy="381.514" r="38.113"></circle>
            <circle id="bubble" opacity="0.6" fill="#3D3C3E" sketch:type="MSShapeGroup" cx="236.795" cy="91.282" r="26.378"></circle>
            <circle id="bubble" opacity="0.6" fill="#3D3C3E" sketch:type="MSShapeGroup" cx="284.833" cy="262.419" r="26.378"></circle>
            <circle id="bubble" opacity="0.6" fill="#3D3C3E" sketch:type="MSShapeGroup" cx="40.23" cy="382.107" r="37.772"></circle>
            <circle id="bubble" opacity="0.6" fill="#3D3C3E" sketch:type="MSShapeGroup" cx="159.326" cy="198.96" r="37.772"></circle>
        </g>
    </g>
</svg>