<?xml version="1.0" encoding="UTF-8" standalone="no"?>
<svg width="787px" height="268px" viewBox="0 0 787 268" version="1.1" xmlns="http://www.w3.org/2000/svg" xmlns:xlink="http://www.w3.org/1999/xlink" xmlns:sketch="http://www.bohemiancoding.com/sketch/ns">
    <!-- Generator: Sketch 3.3.3 (12081) - http://www.bohemiancoding.com/sketch -->
    <title>pixel-table</title>
    <desc>Created with Sketch.</desc>
    <defs></defs>
    <g id="Page-1" stroke="none" stroke-width="1" fill="none" fill-rule="evenodd" sketch:type="MSPage">
        <g id="pixel-table" sketch:type="MSLayerGroup">
            <path d="M229.575152,145.19867 L227.745467,145.19867 L229.359594,146.091216 C229.472853,145.882307 229.578075,145.550597 229.575152,145.19867 L227.745467,145.19867 L229.359594,146.091216 L228.110089,145.400092 L229.091426,146.458868 C229.150613,146.401212 229.252911,146.29189 229.359594,146.091216 L228.110089,145.400092 L229.091426,146.458868 L228.56751,145.893538 L229.032238,146.512031 L229.091426,146.458868 L228.56751,145.893538 L229.032238,146.512031 L228.840063,146.256697 L229.021278,146.520268 L229.032238,146.512031 L228.840063,146.256697 L229.021278,146.520268 L229.022009,146.519519 C229.038815,146.50679 229.166688,146.43266 229.371285,146.351043 C229.731523,146.203534 230.321202,146.026073 231.056291,145.865833 C232.161847,145.623977 233.602066,145.412821 235.24396,145.267558 C236.887315,145.120797 238.736729,145.038431 240.689172,145.038431 C244.290816,145.036933 247.558528,145.325963 249.791562,145.758009 C250.900041,145.967668 251.761542,146.231238 252.156122,146.416187 C252.253306,146.460365 252.319069,146.497804 252.345375,146.513529 L252.357797,146.521765 L252.9314,145.676392 L252.123241,146.264185 C252.266459,146.465607 252.354143,146.516524 252.357797,146.521765 L252.9314,145.676392 L252.123241,146.264185 L253.504273,145.259321 L251.909144,145.838129 C251.972715,146.022329 252.053824,146.163848 252.123241,146.264185 L253.504273,145.259321 L251.909144,145.838129 L253.670873,145.19867 L251.802461,145.19867 C251.801731,145.427797 251.844842,145.654677 251.909144,145.838129 L253.670873,145.19867 L251.802461,145.19867 L256.565195,145.19867 C256.567387,144.666287 256.41467,144.156367 256.209342,143.772992 C256.015705,143.408336 255.787725,143.137277 255.56486,142.920131 C255.143974,142.517287 254.73478,142.27543 254.312432,142.062028 C253.57442,141.699618 252.772106,141.445782 251.840458,141.215906 C250.449196,140.876708 248.782458,140.619128 246.895048,140.437923 C245.009099,140.258215 242.908322,140.158628 240.689172,140.157879 C236.838358,140.160125 233.358742,140.452898 230.707014,140.96132 C229.373478,141.221896 228.258422,141.519162 227.287315,141.955701 C226.799205,142.18333 226.335938,142.434172 225.856595,142.87745 C225.619847,143.102084 225.37433,143.384375 225.168271,143.77374 C224.962943,144.157116 224.810226,144.667036 224.813149,145.19867 L229.575152,145.19867" id="Fill-7-Copy" fill="#3D3C3E" sketch:type="MSShapeGroup"></path>
            <path d="M158.991894,153.25367 C155.480858,153.25367 152.366594,154.964633 150.376154,157.608578 L149.795974,157.608578 C147.863991,155.81375 145.308716,154.711545 142.496234,154.711545 C139.695442,154.711545 137.151128,155.804765 135.221337,157.584617 C133.241127,155.470809 130.460795,154.149211 127.375029,154.149211 C124.686035,154.149211 122.228675,155.153326 120.328112,156.810377 C118.785594,155.646772 116.938372,154.882267 114.927472,154.685338 L114.878515,154.685338 C114.692185,154.685338 114.509509,154.671111 114.330487,154.643406 C114.184346,154.637416 114.036743,154.634421 113.889141,154.634421 C111.511427,154.634421 109.317852,155.424385 107.526894,156.750475 C106.180205,155.29185 104.451358,154.218099 102.507683,153.672238 C99.2260878,158.925683 92.9902531,162.706276 91.9577672,169.060428 C91.2234089,173.578571 91.7772831,178.05553 92.1009853,182.581909 C92.3779225,186.465834 92.4948352,190.34302 93.3899486,194.14982 C95.084453,201.353839 98.5180348,208.093613 104.19415,212.845375 C109.463262,217.256442 116.119983,221.834486 122.947688,223.913101 L128.358557,223.913101 C128.46524,223.700448 128.658877,223.534967 128.960658,223.528977 C134.992626,223.412916 140.725736,221.630069 146.538492,220.157218 C152.009279,218.770476 155.433362,214.68438 159.870932,211.49158 C165.343911,207.552245 168.531245,203.281949 170.91042,196.930792 C171.451872,195.487891 172.048128,194.053977 172.64146,192.617067 C171.535903,189.738005 171.15959,186.069729 171.125978,184.083963 C171.072637,180.886669 172.355754,177.879566 172.318488,174.724954 L172.315565,174.636598 L169.875742,163.788264 L169.838476,163.651237 L169.820209,163.482762 C168.0804,159.59659 165.551431,156.37309 162.354598,153.70144 L162.291757,153.784555 C161.250503,153.444609 160.143485,153.25367 158.991894,153.25367" id="Fill-34-Copy" fill-opacity="0.97" fill="#A0A7A1" sketch:type="MSShapeGroup"></path>
            <path d="M134.461919,67.4099011 L134.067339,67.4735474 C134.067339,67.4735474 134.336238,66.5218473 134.336238,65.18153 C134.335507,63.8075175 134.463381,61.9220879 134.955145,59.8764193 C135.32342,58.341419 135.895562,56.7165651 136.762909,55.1328941 C138.068678,52.757762 140.021121,50.4687396 143.05793,48.6297344 C146.096201,46.7959707 150.25245,45.4107266 155.981175,45.0101289 C157.379014,44.9127875 158.74397,44.8656143 160.076776,44.8656143 C168.217558,44.8671119 175.147562,46.6297414 181.004161,49.6316029 C189.782118,54.133272 196.190399,61.4541001 200.434332,70.017904 C204.675343,78.5757176 206.715471,88.3637779 206.713278,97.6007355 C206.719124,107.045854 204.570852,115.896441 200.654274,122.224386 C198.698178,125.392477 196.31608,127.928597 193.556939,129.669512 C190.794144,131.409678 187.655036,132.3786 184.04097,132.382344 C180.444441,132.382344 176.359801,131.405185 171.791435,129.140124 C167.011895,126.767238 163.755874,123.791584 161.669712,120.499944 C159.587203,117.20531 158.648979,113.563989 158.646056,109.736223 C158.644594,105.754956 159.682195,101.576761 161.564491,97.5520648 C164.382819,91.5146467 169.101711,85.8448799 174.837013,81.7303304 C180.573776,77.6097906 187.296991,75.0512073 194.137849,75.0542024 C199.57137,75.0586951 205.096229,76.6423661 210.435489,80.4117277 C214.437559,83.2413697 218.335138,87.3177313 221.937513,92.9260981 C227.341075,101.334904 232.067273,113.193343 235.427785,129.312343 C238.789757,145.428349 240.788235,165.796679 240.787504,191.198313 C240.787504,196.468979 240.702012,201.956792 240.524451,207.667742 C240.4923,208.701059 241.283653,209.565901 242.292026,209.598847 C243.300398,209.631045 244.144362,208.820116 244.176513,207.786798 C244.354805,202.037661 244.441028,196.510911 244.441028,191.198313 C244.433721,145.684432 238.105818,115.923397 228.67315,97.3236867 C223.953527,88.0290729 218.434514,81.5191742 212.51069,77.3304955 C206.591251,73.1395704 200.272846,71.3058066 194.137849,71.3102993 C188.981996,71.3102993 183.962054,72.5892166 179.343269,74.7666706 C172.414726,78.0358468 166.372528,83.3154989 162.02045,89.4906927 C157.67641,95.667384 154.999108,102.76208 154.992532,109.736223 C154.988878,114.195212 156.112702,118.605529 158.605136,122.537376 C161.093917,126.472219 164.926463,129.89789 170.19996,132.510385 C175.162176,134.970879 179.792652,136.126247 184.04097,136.126247 C188.304633,136.129991 192.165677,134.949913 195.472847,132.85782 C200.443101,129.715936 204.15435,124.602513 206.629978,118.464759 C209.106337,112.319516 210.365341,105.114 210.366802,97.6007355 C210.360957,84.5449967 206.563484,70.5225821 198.350362,59.6353119 C194.243801,54.1969183 189.019993,49.5537297 182.638748,46.283056 C176.259695,43.0108847 168.732705,41.1194649 160.076776,41.1209624 C158.659208,41.1209624 157.211682,41.1718795 155.733466,41.2752112 C150.242951,41.6570893 145.885027,42.8993164 142.447792,44.7031289 C139.871327,46.0546779 137.819508,47.7222123 136.217803,49.5365078 C133.811592,52.2583253 132.424714,55.2916356 131.645783,58.0658678 C130.866121,60.8438439 130.683445,63.3732248 130.682714,65.18153 C130.682714,66.8550546 130.841277,67.9145792 130.852237,67.9902061 C131.008608,69.010794 131.94318,69.7094064 132.939861,69.5499161" id="Fill-35-Copy" fill="#999999" sketch:type="MSShapeGroup"></path>
            <rect id="Rectangle-4" fill="#999999" sketch:type="MSShapeGroup" x="200.870062" y="72.1244591" width="4.78629121" height="2.45546076"></rect>
            <rect id="Rectangle-4-Copy" fill="#D8D8D8" sketch:type="MSShapeGroup" x="202.465493" y="74.5799198" width="3.98857601" height="1.63697384"></rect>
            <rect id="Rectangle-4-Copy-2" fill="#999999" sketch:type="MSShapeGroup" x="202.465493" y="73.7614329" width="3.98857601" height="3.27394768"></rect>
            <rect id="Rectangle-4-Copy-4" fill="#999999" sketch:type="MSShapeGroup" x="205.656353" y="75.3984067" width="3.98857601" height="3.27394768"></rect>
            <rect id="Rectangle-4-Copy-5" fill="#999999" sketch:type="MSShapeGroup" x="205.656353" y="76.2168937" width="3.98857601" height="3.27394768"></rect>
            <rect id="Rectangle-4-Copy-3" fill="#999999" sketch:type="MSShapeGroup" x="204.060923" y="76.2168937" width="3.98857601" height="1.63697384"></rect>
            <path d="M135.253058,118.058732 C133.169088,118.058732 131.480429,119.789913 131.480429,121.924686 C131.480429,124.05946 133.169088,125.789892 135.253058,125.789892 C137.336297,125.789892 139.024956,124.05946 139.024956,121.924686 C139.024956,119.789913 137.336297,118.058732 135.253058,118.058732" id="Fill-36-Copy" fill-opacity="0.97" fill="#A0A7A1" sketch:type="MSShapeGroup"></path>
            <path d="M115.185227,147.524261 C113.170674,147.524261 111.537549,149.197786 111.537549,151.262174 C111.537549,153.135623 112.882777,154.687097 114.637199,154.958155 C114.838143,154.966392 115.036894,154.980619 115.234185,155.000087 C117.226086,154.973131 118.833637,153.310089 118.833637,151.262174 C118.833637,149.197786 117.199781,147.524261 115.185227,147.524261" id="Fill-37-Copy" fill-opacity="0.97" fill="#A0A7A1" sketch:type="MSShapeGroup"></path>
            <path d="M114.72841,154.890643 C114.907433,154.918348 115.090109,154.932575 115.276439,154.932575 L115.325396,154.932575 C115.128105,154.913107 114.929354,154.89888 114.72841,154.890643" id="Fill-38-Copy" fill="#6D6C6E" sketch:type="MSShapeGroup"></path>
            <path d="M145.61851,143.15042 L147.395584,143.15042 L147.395584,74.6789253 L116.009621,74.6789253 L116.009621,143.169139 L117.786695,143.169139 L117.178749,141.458176 C109.014584,144.504964 102.023931,150.035458 97.0704836,157.158608 C92.1170358,164.281009 89.2007929,173.009545 89.2015236,182.418722 C89.2022544,206.489023 108.241498,225.998502 131.730004,226 C155.21851,225.998502 174.257754,206.489023 174.259215,182.418722 C174.259946,172.999062 171.336396,164.261541 166.371988,157.134647 C161.40831,150.007004 154.402312,144.47651 146.224264,141.437959 L145.61851,143.15042 L147.395584,143.15042 L145.61851,143.15042 L145.012756,144.862132 C152.50248,147.643852 158.929029,152.715344 163.479127,159.250701 C168.029957,165.786807 170.704336,173.77405 170.705067,182.418722 C170.704336,193.453502 166.345682,203.426511 159.289266,210.66048 C152.230658,217.890706 142.498401,222.357182 131.730004,222.357931 C120.962338,222.357182 111.22935,217.890706 104.170742,210.66048 C97.1150566,203.426511 92.7564025,193.453502 92.7549411,182.418722 C92.7564025,173.783784 95.4242057,165.804777 99.9648053,159.272415 C104.505405,152.741551 110.918801,147.669311 118.394642,144.880103 L119.563769,144.443564 L119.563769,78.3209942 L143.841436,78.3209942 L143.841436,144.427091 L145.012756,144.862132 L145.61851,143.15042 L148.326806,145.323087 L145.61851,143.15042 Z" id="Fill-39-Copy" fill="#3D3C3E" sketch:type="MSShapeGroup"></path>
            <rect id="Rectangle-2-Copy" stroke="#3D3C3E" fill="#D8D8D8" sketch:type="MSShapeGroup" x="145.827713" y="141.695847" width="1.5954304" height="1.63697384"></rect>
            <rect id="Rectangle-2" stroke="#3D3C3E" fill="#D8D8D8" sketch:type="MSShapeGroup" x="116.312251" y="141.695847" width="1.5954304" height="1.63697384"></rect>
            <path d="M119.905471,74.4290934 L117.915762,74.4290934 L119.670915,75.399513 C119.794404,75.1726325 119.908394,74.8117203 119.905471,74.4290934 L117.915762,74.4290934 L119.670915,75.399513 L118.313265,74.6484861 L119.379363,75.8001107 C119.443665,75.7364643 119.554733,75.6174082 119.670915,75.399513 L118.313265,74.6484861 L119.379363,75.8001107 L118.809414,75.184613 L119.315061,75.857018 L119.379363,75.8001107 L118.809414,75.184613 L119.315061,75.857018 L119.10681,75.5799692 L119.30337,75.8660034 L119.315061,75.857018 L119.10681,75.5799692 L119.30337,75.8660034 L119.304101,75.8652546 C119.322368,75.8517765 119.461933,75.771657 119.684067,75.6825521 C120.075725,75.5223131 120.716553,75.3283789 121.515944,75.1554106 C122.717954,74.8918398 124.283123,74.6619641 126.068966,74.5039714 C127.855539,74.3452299 129.866439,74.2553763 131.988405,74.2553763 C135.904252,74.2531299 139.456939,74.5676178 141.88434,75.037852 C142.489364,75.1546618 143.021317,75.2797081 143.460471,75.4047545 C144.114451,75.5859594 144.571873,75.7963668 144.661019,75.8592643 L144.674902,75.8682497 L145.298193,74.9487471 L144.419886,75.5882058 C144.575526,75.8068497 144.670518,75.8622595 144.674902,75.8682497 L145.298193,74.9487471 L144.419886,75.5882058 L145.921484,74.4949861 L144.186791,75.1247106 C144.256208,75.324635 144.343893,75.4788838 144.419886,75.5882058 L145.921484,74.4949861 L144.186791,75.1247106 L146.102699,74.4290934 L144.07134,74.4290934 C144.070609,74.6791861 144.117374,74.9255349 144.186791,75.1247106 L146.102699,74.4290934 L144.07134,74.4290934 L149.249114,74.4290934 C149.251306,73.8502859 149.085436,73.2961883 148.86184,72.8791175 C148.651397,72.4830125 148.403688,72.1887418 148.161825,71.9528759 C147.703673,71.5140904 147.258674,71.2520172 146.799061,71.0198952 C145.997478,70.6252878 145.125016,70.3489878 144.112259,70.0988951 C142.5997,69.7312438 140.787552,69.450451 138.735733,69.2535217 C136.685376,69.05809 134.401193,68.9495168 131.988405,68.9495168 C127.801467,68.9517632 124.019339,69.2699949 121.135978,69.822595 C120.413311,69.9618682 119.744716,70.1168658 119.128732,70.2920805 C118.200737,70.5623903 117.404999,70.8491732 116.637028,71.3179099 C116.253408,71.559766 115.860289,71.8480466 115.476669,72.3257686 C115.286686,72.5653784 115.101087,72.8589004 114.960061,73.2168175 C114.817573,73.5732371 114.726966,73.9977957 114.728427,74.4290934 L119.905471,74.4290934" id="Fill-40-Copy" fill="#3D3C3E" sketch:type="MSShapeGroup"></path>
            <path d="M117.919271,68.1209472 C117.919271,65.8663688 119.70219,64.0385953 121.903073,64.0385953 L141.373433,64.0385953 C142.52137,64.0385953 143.614505,64.5462686 144.370784,65.432076 C145.127064,66.3178835 145.473418,67.4949666 145.320701,68.6615668 L141.920731,94.6734566 C141.920731,96.9280351 139.141861,99.010394 136.941709,99.010394 L126.882826,99.010394 C124.681944,99.010394 121.903073,96.1111154 121.903073,93.856537 L117.919271,68.1209472" id="Fill-44-Copy" fill="#949494" sketch:type="MSShapeGroup"></path>
            <path d="M282.337827,212.197662 L283.764893,211.591898 L256.544678,144.250313 L248.957771,144.250313 L248.54273,145.168318 C248.382706,145.519497 248.162764,145.790555 247.880712,145.982992 C247.595737,146.172433 247.236961,146.307214 246.683817,146.310209 C246.125559,146.306465 245.768244,146.167941 245.473039,145.968016 L244.923549,145.586887 L244.274684,145.732899 C244.097853,145.772584 243.917369,145.795048 243.715694,145.795797 C243.509636,145.795048 243.329882,145.774831 243.166935,145.738889 L242.804506,145.660267 L242.447191,145.757609 C242.252823,145.810772 242.043842,145.842221 241.796864,145.842221 C241.65876,145.842221 241.529426,145.829492 241.395707,145.80628 L241.016471,145.740387 L240.650388,145.864684 C240.502785,145.914853 240.313533,145.954538 240.084822,145.971011 L239.648592,146.00246 L239.293469,146.264533 C238.984381,146.485424 238.629258,146.632933 238.052002,146.637426 C237.44917,146.632933 237.076511,146.476438 236.779114,146.255548 C236.486101,146.032411 236.258852,145.708938 236.114172,145.297858 L235.746628,144.250313 L225.65048,144.250313 L198.430265,211.591898 C197.934847,212.816154 197.690792,214.111545 197.690792,215.400196 C197.690061,217.340287 198.244666,219.269146 199.32757,220.929941 C201.129488,223.694439 204.159721,225.353737 207.40332,225.353737 L274.791839,225.353737 C278.035437,225.353737 281.064939,223.694439 282.867588,220.929941 C283.950492,219.269146 284.504367,217.340287 284.504367,215.400196 C284.504367,214.111545 284.260311,212.816903 283.765624,211.591898 L282.337827,212.197662 L280.910761,212.803425 C281.248346,213.639064 281.414947,214.521128 281.414947,215.400196 C281.414947,216.724041 281.037172,218.03815 280.29843,219.171056 C279.070115,221.055736 277.003682,222.187893 274.791839,222.187893 L207.40332,222.187893 C205.191476,222.187893 203.125043,221.055736 201.896728,219.171056 C201.157255,218.03815 200.780211,216.724041 200.780211,215.400196 C200.780211,214.521128 200.946081,213.639813 201.284398,212.803425 L227.714721,147.416158 L234.66007,147.416158 L234.66007,145.833236 L233.206698,146.368614 C233.528208,147.288116 234.098889,148.158948 234.936276,148.796161 C235.77001,149.437117 236.859491,149.808512 238.052002,149.804019 C239.225513,149.809261 240.287228,149.437866 241.096118,148.835097 L240.194428,147.55019 L240.304034,149.128619 C240.754148,149.095673 241.195494,149.014805 241.622225,148.869541 L241.136306,147.366738 L240.876906,148.927197 C241.16115,148.977365 241.469508,149.008814 241.796864,149.008065 C242.31128,149.008814 242.797198,148.939178 243.242928,148.817126 L242.845425,147.287368 L242.523915,148.835846 C242.901689,148.918212 243.300654,148.961641 243.715694,148.961641 C244.151194,148.961641 244.562581,148.909975 244.938894,148.824614 L244.607154,147.279131 L243.741269,148.589497 C244.543583,149.151083 245.565839,149.480546 246.683817,149.476053 C247.776952,149.479797 248.783863,149.170551 249.585446,148.623192 C250.389952,148.07808 250.977439,147.318816 251.347175,146.498153 L249.944953,145.833236 L249.944953,147.416158 L254.480437,147.416158 L280.910761,212.803425 L282.337827,212.197662" id="Fill-45-Copy" fill="#3D3C3E" sketch:type="MSShapeGroup"></path>
            <path d="M255.088471,180.747171 L254.587207,180.747171 C252.920469,179.198693 250.715933,178.24849 248.289993,178.24849 C246.594027,178.24849 245.006206,178.712734 243.635404,179.521418 C243.731126,183.271311 243.780083,187.142507 243.780814,191.13201 C243.780814,196.444608 243.694591,201.971358 243.516299,207.720496 C243.484148,208.733596 242.673065,209.533293 241.690998,209.533293 C240.623438,209.499598 239.832085,208.634757 239.864236,207.601439 C240.041797,201.89049 240.12729,196.402677 240.12729,191.13201 C240.128021,186.980021 240.073948,182.960567 239.970188,179.074395 C238.58258,178.241003 236.969184,177.763281 235.24472,177.763281 C232.924733,177.763281 230.804958,178.62962 229.165257,180.059042 C227.608855,178.884205 225.692217,178.181849 223.609708,178.181849 C221.55862,178.181849 219.666825,178.863239 218.121384,180.007376 C217.192659,179.001015 216.05349,178.207308 214.776948,177.688403 L200.588123,212.790489 C200.249806,213.626877 200.083936,214.508192 200.083936,215.38726 C200.083936,216.711104 200.46098,218.025214 201.200453,219.158119 C202.428768,221.0428 204.495201,222.174957 206.707045,222.174957 L274.095564,222.174957 C276.307407,222.174957 278.37384,221.0428 279.602155,219.158119 C280.340897,218.025214 280.718672,216.711104 280.718672,215.38726 C280.718672,214.508192 280.552071,213.626128 280.214486,212.790489 L266.16011,178.020861 C265.919708,177.802217 265.67346,177.586568 265.422098,177.37691 C264.469259,177.154522 263.514227,176.98979 262.5212,176.98979 C259.491698,176.98979 256.805627,178.466386 255.088471,180.747171 Z" id="Fill-46-Copy" fill-opacity="0.97" fill="#9FA6A1" sketch:type="MSShapeGroup"></path>
            <path d="M240.076595,179.445251 C240.180355,183.331422 240.234427,187.350877 240.233696,191.502865 C240.233696,196.773532 240.148204,202.261345 239.970643,207.972295 C239.938492,209.005612 240.729845,209.870454 241.738217,209.9034 C241.757946,209.904149 241.777675,209.904149 241.797404,209.904149 C242.779472,209.904149 243.590554,209.104451 243.622705,208.091351 C243.800997,202.342213 243.88722,196.815464 243.88722,191.502865 C243.88649,187.513362 243.837532,183.642166 243.74181,179.892273 C243.159438,180.235215 242.616525,180.640305 242.120376,181.09781 C241.519006,180.455356 240.831413,179.897514 240.076595,179.445251" id="Fill-47-Copy" fill="#4F4F50" sketch:type="MSShapeGroup"></path>
            <path d="M267.203224,209.120962 L267.014528,209.198723 L267.203224,209.120962" id="Fill-48-Copy" fill="#646365" sketch:type="MSShapeGroup"></path>
            <path d="M214.348365,177.808277 C213.769647,178.735268 213.083515,179.609095 212.351349,180.459709 C213.063055,182.345139 212.67359,184.710537 211.182952,186.065081 C211.188798,188.161667 210.037207,190.261996 207.715758,190.741965 C207.864091,192.665582 207.015012,194.66857 205.193365,195.514692 C206.181278,197.421837 205.899956,200.043318 204.3589,201.545371 C204.985114,203.75053 204.201068,206.436406 202.002377,207.42929 C200.633036,210.810034 198.002499,214.978496 198.566603,217.377589 C199.399607,220.918572 203.289148,222.819726 207.387671,224.559144 C207.595191,224.513468 207.798327,224.461802 208.00877,224.420619 C209.716428,224.088909 211.421162,223.963114 213.124435,223.963114 C215.734512,223.963114 218.340205,224.256636 220.94736,224.550907 C223.554515,224.844429 226.1624,225.137951 228.775401,225.137951 C230.659158,225.137951 232.544376,224.985949 234.434709,224.570375 C237.70096,223.853792 241.071701,223.385056 244.481169,223.385056 C245.731405,223.385056 246.986756,223.448702 248.244299,223.58498 C253.123215,224.115117 257.42049,223.913695 262.33448,224.141324 C266.110762,224.317288 269.880468,224.342746 273.647982,224.356973 C276.461195,223.623168 279.232028,222.75009 281.942212,221.674841 C282.889936,219.665862 283.936305,217.477925 284.222742,216.783057 C283.91,215.968384 283.18441,214.390703 282.349215,212.577905 L282.198689,212.641551 L282.349215,212.577905 C280.638635,208.864702 278.469903,204.166104 278.450905,203.015228 C278.40487,200.25672 274.606667,198.692517 274.575246,195.9707 L274.573054,195.894324 L272.997655,188.890979 C271.024752,187.339506 269.854163,185.200239 268.902054,182.822861 C268.485553,181.784302 268.13043,180.725526 267.778961,179.663007 C267.751194,179.579892 267.721966,179.497526 267.69493,179.414412 C267.377073,179.095431 267.05191,178.782441 266.717247,178.477687 L280.771623,213.247315 C281.109209,214.082954 281.275809,214.965018 281.275809,215.844086 C281.275809,217.16793 280.898035,218.48204 280.159292,219.614945 C278.930978,221.499626 276.864545,222.631782 274.652701,222.631782 L207.264182,222.631782 C205.052339,222.631782 202.985906,221.499626 201.757591,219.614945 C201.018118,218.48204 200.641074,217.16793 200.641074,215.844086 C200.641074,214.965018 200.806944,214.083703 201.14526,213.247315 L215.334086,178.145228 C215.013307,178.015689 214.684489,177.902624 214.348365,177.808277" id="Fill-49-Copy" fill="#3D3C3E" sketch:type="MSShapeGroup"></path>
            <path d="M250.793064,154.072156 C249.262968,154.072156 247.838824,155.068035 247.333177,156.638228 C246.703309,158.596289 247.742371,160.707102 249.653164,161.35255 C250.031669,161.480592 250.41602,161.541243 250.794525,161.541243 C252.32389,161.541243 253.748765,160.545365 254.253682,158.975172 C254.883549,157.017111 253.845218,154.906298 251.934425,154.260849 C251.55592,154.132808 251.171569,154.072156 250.793064,154.072156" id="Fill-50-Copy" fill-opacity="0.50999999" fill="#9FA6A1" sketch:type="MSShapeGroup"></path>
            <path d="M229.809702,165.530973 C229.790704,165.530973 229.771705,165.530973 229.752707,165.531722 C227.874796,165.563171 226.378312,167.148339 226.409002,169.071957 C226.439691,170.976106 227.955904,172.498377 229.80751,172.498377 C229.826508,172.498377 229.845506,172.498377 229.864505,172.497628 C231.741685,172.466179 233.238169,170.881011 233.207479,168.957393 C233.17679,167.053244 231.661308,165.530973 229.809702,165.530973" id="Fill-51-Copy" fill-opacity="0.50999999" fill="#9FA6A1" sketch:type="MSShapeGroup"></path>
            <path d="M251.802461,144.755671 L253.632877,144.755671 L252.01875,143.863124 C251.905491,144.071285 251.800269,144.403744 251.802461,144.755671 L253.632877,144.755671 L252.01875,143.863124 L253.267524,144.5535 L252.286188,143.494724 C252.227731,143.553129 252.125433,143.662451 252.01875,143.863124 L253.267524,144.5535 L252.286188,143.494724 L252.810834,144.060053 L252.346106,143.442309 L252.286188,143.494724 L252.810834,144.060053 L252.346106,143.442309 L252.538281,143.697644 L252.356335,143.434073 L252.346106,143.442309 L252.538281,143.697644 L252.356335,143.434073 L252.355605,143.434073 C252.338799,143.446802 252.210925,143.520931 252.006328,143.602549 C251.64609,143.750058 251.056412,143.928268 250.321323,144.087758 C249.215766,144.329614 247.776278,144.541519 246.133653,144.686783 C244.490298,144.832795 242.640885,144.915161 240.689172,144.915161 C237.087528,144.917407 233.819086,144.627629 231.586782,144.195583 C230.478303,143.985924 229.616802,143.722353 229.221491,143.537405 C229.124307,143.493227 229.058544,143.456536 229.032238,143.440063 L229.019816,143.431827 L228.446944,144.2772 L229.254373,143.689407 C229.111155,143.487985 229.02347,143.437817 229.019816,143.431827 L228.446944,144.2772 L229.254373,143.689407 L227.873341,144.695019 L229.468469,144.116212 C229.404898,143.931263 229.32452,143.789744 229.254373,143.689407 L227.873341,144.695019 L229.468469,144.116212 L227.70674,144.755671 L229.575152,144.755671 C229.575883,144.525795 229.532771,144.298914 229.468469,144.116212 L227.70674,144.755671 L229.575152,144.755671 L224.813149,144.755671 C224.810226,145.288054 224.962943,145.797973 225.169002,146.181349 C225.361908,146.546005 225.590619,146.816315 225.812753,147.033461 C226.233639,147.437054 226.643564,147.678161 227.065912,147.891564 C227.803193,148.253974 228.606238,148.50781 229.537886,148.738435 C230.929148,149.076884 232.595155,149.334464 234.483296,149.515669 C236.368515,149.696125 238.469291,149.795713 240.689172,149.795713 C244.539986,149.793467 248.018872,149.501442 250.670599,148.99302 C252.004136,148.731696 253.119191,148.435179 254.090298,147.997891 C254.578409,147.770261 255.042406,147.51942 255.521018,147.076142 C255.757766,146.851508 256.003283,146.569217 256.209342,146.1806 C256.41467,145.796476 256.567387,145.287305 256.564464,144.755671 L251.802461,144.755671" id="Fill-52-Copy" fill="#565556" sketch:type="MSShapeGroup"></path>
            <path d="M254.807679,142.61334 C255.39955,142.980242 256.543833,144.048752 256.34362,145.791165 C256.187249,147.153196 254.502244,148.506992 253.785423,148.506992 C253.070063,148.506992 254.646193,145.600225 253.832919,145.791165 C250.104863,146.667238 247.754185,146.768323 251.272529,144.466572 C252.233406,143.838345 253.911104,143.653396 254.807679,142.61334" id="Fill-53-Copy" fill="#565556" sketch:type="MSShapeGroup"></path>
            <path d="M224.813108,145.121685 C224.813108,146.358671 225.809789,146.740549 226.668367,146.740549 C227.527676,146.740549 229.010276,145.779114 230.2174,145.793341 C233.73136,145.835273 229.583879,143.992524 229.583879,143.992524 C229.583879,143.992524 227.765155,143.490092 227.478719,141.794853 C227.478719,141.794853 224.813108,142.673921 224.813108,145.121685" id="Fill-54-Copy" fill="#565556" sketch:type="MSShapeGroup"></path>
            <path d="M147.574802,71.4049776 C148.218553,71.8033289 149.462213,72.9654364 149.245194,74.8598513 C149.074939,76.3409394 147.242332,77.8130421 146.463401,77.8130421 C145.685931,77.8130421 147.398703,74.6524391 146.515281,74.8598513 C142.462061,75.8123003 139.906786,75.9216223 143.732026,73.4199462 C144.776203,72.7370583 146.600042,72.5356363 147.574802,71.4049776" id="Fill-1014-Copy" fill="#565556" sketch:type="MSShapeGroup"></path>
            <path d="M114.72841,74.2038498 C114.72841,75.547911 115.812045,75.964233 116.745155,75.964233 C117.679727,75.964233 119.291661,74.9189353 120.603276,74.9339109 C124.424132,74.9795865 119.914953,72.9765984 119.914953,72.9765984 C119.914953,72.9765984 117.938396,72.4299885 117.627116,70.5864907 C117.627116,70.5864907 114.72841,71.5426835 114.72841,74.2038498" id="Fill-1015-Copy" fill="#565556" sketch:type="MSShapeGroup"></path>
            <path d="M144.07136,74.4811078 L146.06107,74.4811078 L144.305917,73.5106881 C144.182427,73.7375686 144.068438,74.0984809 144.07136,74.4811078 L146.06107,74.4811078 L144.305917,73.5106881 L145.663566,74.261715 L144.596737,73.1108392 C144.533166,73.1737368 144.422099,73.2927929 144.305917,73.5106881 L145.663566,74.261715 L144.596737,73.1108392 L145.167418,73.7255881 L144.66177,73.0531831 L144.596737,73.1108392 L145.167418,73.7255881 L144.66177,73.0531831 L144.870021,73.3309807 L144.673461,73.0441978 L144.66177,73.0531831 L144.870021,73.3309807 L144.673461,73.0441978 L144.67273,73.0449465 C144.654463,73.0584246 144.514898,73.1392929 144.292764,73.227649 C143.901106,73.3878881 143.260278,73.5818222 142.460887,73.7555393 C141.258878,74.0183613 139.693708,74.248237 137.907865,74.4062297 C136.121292,74.5649712 134.110393,74.6555736 131.988426,74.6555736 C128.07331,74.6570712 124.519892,74.3425833 122.092491,73.8723491 C121.488198,73.7562881 120.955514,73.630493 120.517091,73.5054466 C119.86238,73.3242417 119.404959,73.1138344 119.315813,73.0509368 L119.301929,73.0419514 L118.678638,73.961454 L119.556945,73.3219954 C119.401305,73.1033514 119.305583,73.0479417 119.301929,73.0419514 L118.678638,73.961454 L119.556945,73.3219954 L118.055347,74.4152151 L119.79004,73.7862393 C119.720623,73.5855661 119.632939,73.4313173 119.556945,73.3219954 L118.055347,74.4152151 L119.79004,73.7862393 L117.874132,74.4811078 L119.905491,74.4811078 C119.906222,74.2317638 119.859457,73.9846662 119.79004,73.7862393 L117.874132,74.4811078 L119.905491,74.4811078 L114.728448,74.4811078 C114.725525,75.0599152 114.891395,75.6140128 115.114991,76.0310836 C115.325434,76.4279374 115.573873,76.7222081 115.815006,76.958074 C116.273158,77.3961107 116.718157,77.6589327 117.17777,77.8910547 C117.979354,78.2849133 118.852546,78.5612133 119.865303,78.8113061 C121.377862,79.1797061 123.189279,79.4597501 125.241829,79.6566794 C127.291455,79.8528599 129.575639,79.9606843 131.988426,79.9606843 C136.175364,79.9591867 139.957492,79.640955 142.840853,79.0876061 C143.563521,78.9483329 144.232115,78.7940841 144.8481,78.6181207 C145.776095,78.3485596 146.571832,78.0610279 147.339803,77.5922912 C147.723423,77.3504351 148.116542,77.0621545 148.500893,76.5844325 C148.690145,76.3448227 148.875744,76.0520495 149.017501,75.6933836 C149.159258,75.336964 149.249865,74.9131542 149.248404,74.4811078 L144.07136,74.4811078" id="Fill-1016-Copy" fill="#565556" sketch:type="MSShapeGroup"></path>
            <path d="M390.971116,180.171775 L518.649103,180.171775 L518.649103,221.851102 L390.971116,221.851102 L390.971116,180.171775 Z" id="Fill-1-Copy" fill="#BFBFBF" sketch:type="MSShapeGroup"></path>
            <path d="M449.954106,161.467408 C449.007403,162.129865 446.466837,163.735078 445.747583,164.619982 L445.066093,164.619982 C442.796751,162.666837 439.795279,161.467408 436.490828,161.467408 C435.387914,161.467408 434.327914,161.623041 433.31083,161.879712 C433.405243,162.398758 433.413826,162.932471 433.341729,163.454777 C433.376919,163.970564 433.333146,164.492054 433.208693,164.993174 C433.40181,165.55948 433.492789,166.163269 433.473907,166.764613 C433.534846,167.387142 433.47219,168.01945 433.299672,168.619164 C433.446441,169.381844 433.413826,170.179562 433.200968,170.925131 C433.193243,171.148394 433.176077,171.370842 433.136595,171.591661 C433.247316,172.054484 433.293664,172.534418 433.268773,173.010278 C433.30053,173.415249 433.266199,173.820219 433.20011,174.2203 C433.269632,174.597566 433.293664,174.982165 433.27564,175.36595 C433.324563,175.653584 433.352887,175.944478 433.344304,176.237817 C433.628401,177.147166 433.642992,178.142073 433.383786,179.05957 C433.394943,179.450688 433.363186,179.842621 433.283365,180.224776 L450.021054,180.224776 C450.056244,180.114774 450.096584,180.006402 450.140357,179.898844 C450.090576,176.943459 450.180697,174.054889 449.954106,171.057948 C449.73524,168.157156 449.979855,164.36983 449.954106,161.467408" id="Fill-2-Copy" fill="#ADC9D2" sketch:type="MSShapeGroup"></path>
            <path d="M450.031353,180.171775 L433.293664,180.171775 C433.267057,180.301333 433.2353,180.429261 433.198393,180.55556 C433.55287,181.576541 433.561453,182.719746 433.217275,183.744801 C433.24045,183.961546 433.253324,184.17992 433.248174,184.398294 C433.364045,185.032231 433.353745,185.688169 433.222425,186.318032 C433.492789,187.166269 433.543429,188.085396 433.338296,188.953189 C433.640417,189.976615 433.59321,191.099449 433.214701,192.0968 C433.544287,192.999631 433.594927,194.004315 433.371769,194.939739 C433.570895,195.849089 433.53313,196.813032 433.212984,197.686528 C433.514247,198.662694 433.507381,199.737453 433.185518,200.707915 C433.453308,201.596079 433.470474,202.564096 433.224142,203.458778 C433.40696,204.203532 433.423267,204.990657 433.225,205.730522 C433.267915,205.975786 433.287656,206.226753 433.274782,206.484239 C433.231867,207.315365 433.18981,208.136713 433.136595,208.95969 C433.197535,209.257103 433.231867,209.559404 433.237875,209.86415 C433.290231,210.115118 433.327996,210.36853 433.337437,210.624386 C433.4267,210.791426 433.508239,210.963355 433.581194,211.140173 C433.727105,211.495438 433.803494,211.848259 433.832676,212.198636 C434.087591,212.604421 434.266975,213.052577 434.372546,213.519474 C434.90555,213.988816 435.326974,214.590974 435.55614,215.338173 C436.425597,215.884923 437.525937,216.332264 438.309564,216.814643 C439.193612,217.358949 440.163489,217.627843 441.202031,217.627843 C441.74276,217.627843 442.302371,217.555323 442.878289,217.410283 L443.025917,217.380135 C443.736588,216.85294 444.662693,216.52212 445.803372,216.501749 L445.829121,216.487082 C446.298611,215.804255 446.972376,215.249356 447.848699,214.925054 C448.142237,213.930148 448.757638,213.03628 449.6949,212.453677 C449.712066,211.941965 449.802187,211.435141 449.974706,210.954392 C449.855402,210.29438 449.873426,209.609109 450.02277,208.954801 C449.934365,208.346938 449.955823,207.722779 450.088001,207.121435 C449.73524,206.044231 449.765281,204.839914 450.181556,203.785525 C450.092293,203.080698 450.028778,202.373426 450.004746,201.662895 C449.991872,201.283184 450.025345,200.931993 450.090576,200.601987 C449.975564,200.044644 449.956681,199.467745 450.034786,198.903068 C449.782447,197.983126 449.789313,196.990664 450.081135,196.08213 C449.9172,195.498712 449.870851,194.885146 449.926641,194.280542 C449.617653,193.295414 449.626236,192.210062 449.954965,191.231452 C449.762706,190.318843 449.824503,189.350011 450.151515,188.478144 C449.94724,187.724427 449.918916,186.928339 450.07341,186.165659 C450.014187,185.818541 449.995305,185.464091 450.009896,185.11127 C449.827936,184.399109 449.800471,183.646207 449.940374,182.925083 C449.712066,182.023067 449.742965,181.05505 450.031353,180.171775" id="Fill-3-Copy" fill="#8AAFBD" sketch:type="MSShapeGroup"></path>
            <path d="M418.280484,160.576724 C415.121085,160.576724 412.234626,161.718043 410.003048,163.602369 C409.090676,162.935961 408.081317,162.39892 407.007585,161.990394 C407.089981,162.549564 407.071957,163.122351 406.963811,163.676414 C407.280524,164.64411 407.283957,165.72415 406.974969,166.696102 C406.992993,167.068881 406.970678,167.444215 406.900297,167.811037 C407.048783,168.474891 407.041058,169.170237 406.913172,169.838347 C407.185252,170.406027 407.358629,171.031583 407.386953,171.694586 C407.451325,173.146555 407.33803,174.623206 407.050499,176.051344 C407.023034,176.188371 406.995568,176.312631 406.968961,176.433486 C407.229884,177.232665 407.27709,178.117805 407.086548,178.994433 C407.062516,179.106778 407.0299,179.218271 406.99986,179.330616 C407.211001,179.762121 407.353479,180.254055 407.404119,180.808118 L423.745274,180.808118 C423.33844,179.7068 423.314408,178.453136 423.67146,177.332243 C423.62597,177.043722 423.611379,176.751796 423.613954,176.459019 C423.498942,175.823251 423.498084,175.164503 423.611379,174.528734 C423.547007,174.123613 423.510958,173.713385 423.539282,173.302306 C423.518683,172.915057 423.542715,172.526106 423.603654,172.144816 C423.401954,171.307338 423.421695,170.420496 423.635411,169.588124 C423.642278,169.114915 423.7118,168.645111 423.841403,168.193179 C423.803638,167.980405 423.775314,167.765929 423.759006,167.550602 C423.473193,166.610141 423.450019,165.581166 423.696351,164.62879 C423.602796,164.096856 423.58563,163.54875 423.649144,163.009155 C423.617387,162.602332 423.632837,162.192104 423.692059,161.789535 C422.048417,161.020145 420.219381,160.576724 418.280484,160.576724" id="Fill-4-Copy" fill="#ADC9D2" sketch:type="MSShapeGroup"></path>
            <path d="M423.612237,180.171775 L407.271082,180.171775 C407.284815,180.324963 407.291681,180.483855 407.289965,180.646821 C407.25735,183.978657 407.406694,187.335753 407.150062,190.655367 C406.962095,193.07541 407.656459,195.876793 406.900297,198.231649 C407.251341,198.832178 407.414418,199.58834 407.289965,200.508282 C406.902014,203.390333 406.992993,206.345718 406.928621,209.247325 C406.893431,210.847649 407.517414,212.409677 408.08475,213.955408 C408.977381,214.314747 409.625397,214.945425 410.038238,215.698327 C410.274271,215.793662 410.502578,215.913442 410.716295,216.06826 C411.022707,216.289078 411.327403,216.513971 411.6321,216.737234 C411.75312,216.743753 411.938512,216.769828 412.204585,216.818717 C413.12039,216.897756 414.246478,217.324726 415.228373,217.324726 C415.427498,217.324726 415.619757,217.307615 415.803433,217.266059 C416.41025,217.101463 417.027367,216.99635 417.653067,216.929534 L417.841035,216.814643 C418.440986,216.408858 419.208305,216.394191 419.879495,216.229596 C420.303495,215.665734 420.854523,215.189059 421.499105,214.877794 L421.539445,214.805274 L421.603818,214.63742 C421.947996,213.728885 422.530781,212.976798 423.262051,212.436566 C423.057776,210.040968 423.449161,207.50359 423.55559,205.295403 C423.574472,204.909989 423.658585,204.542501 423.771881,204.187236 C423.697209,203.895527 423.652577,203.59567 423.637128,203.294183 C423.425986,202.406834 423.468043,201.460002 423.75214,200.594654 C423.443152,199.581006 423.472335,198.463061 423.83282,197.467339 C423.75214,197.208224 423.7015,196.941775 423.664594,196.672066 C423.444869,195.921608 423.407104,195.117372 423.553015,194.348173 C423.232011,193.274228 423.265485,192.092726 423.694634,191.057893 C423.608804,190.447586 423.637128,189.820168 423.777031,189.220453 C423.55044,188.456958 423.527266,187.63887 423.680901,186.857449 C423.496367,186.301735 423.414829,185.712614 423.434569,185.126752 C423.2981,184.331478 423.355606,183.501982 423.605371,182.736858 C423.532416,182.08255 423.59078,181.41439 423.775314,180.784527 C423.708367,180.593857 423.665452,180.397483 423.623395,180.200294 C423.619104,180.190516 423.615671,180.181553 423.612237,180.171775" id="Fill-5-Copy" fill="#8AAFBD" sketch:type="MSShapeGroup"></path>
            <path d="M513.96405,131.184148 L513.96405,217.378407 L394.869053,217.378407 L394.869053,131.184148 L386.286063,131.184148 L386.286063,225.526699 L522.54704,225.526699 L522.54704,131.184148 L513.96405,131.184148" id="Fill-6-Copy" fill="#D1D1D1" sketch:type="MSShapeGroup"></path>
            <path d="M423.207979,122.277306 L423.207979,209.218764 C423.207979,211.245244 422.34453,213.076165 420.945502,214.404337 C419.546475,215.731694 417.617877,216.552227 415.483287,216.552227 C413.348698,216.552227 411.4201,215.731694 410.021072,214.404337 C408.622903,213.076165 407.758596,211.245244 407.758596,209.218764 L407.758596,122.277306 L406.900297,122.277306 L406.900297,209.218764 C406.901155,213.719066 410.742902,217.367056 415.483287,217.367056 C420.223673,217.367056 424.066278,213.719066 424.066278,209.218764 L424.066278,122.277306 L423.207979,122.277306" id="Fill-1017-Copy" fill="#999999" sketch:type="MSShapeGroup"></path>
            <path d="M407.679885,122.634865 L406.821586,122.634865 L406.821586,120.495938 L405.963286,120.495938 L405.963286,123.449694 L407.679885,123.449694 L407.679885,122.634865" id="Fill-1018-Copy" fill="#999999" sketch:type="MSShapeGroup"></path>
            <path d="M423.581348,120.495938 L423.581348,122.634865 L422.829478,122.634865 L422.829478,123.449694 L424.439647,123.449694 L424.439647,120.495938 L423.581348,120.495938" id="Fill-1019-Copy" fill="#999999" sketch:type="MSShapeGroup"></path>
            <path d="M405.963286,119.605254 L424.738578,119.605254 L424.738578,119.81385 L405.963286,119.81385 L405.963286,119.605254 Z" id="Fill-1020-Copy" fill="#999999" sketch:type="MSShapeGroup"></path>
            <path d="M433.238409,122.634865 L432.38011,122.634865 L432.38011,120.495938 L431.521811,120.495938 L431.521811,123.449694 L433.238409,123.449694 L433.238409,122.634865" id="Fill-1018-Copy-2" fill="#999999" sketch:type="MSShapeGroup"></path>
            <path d="M449.139872,120.495938 L449.139872,122.634865 L448.388002,122.634865 L448.388002,123.449694 L449.998171,123.449694 L449.998171,120.495938 L449.139872,120.495938" id="Fill-1019-Copy-2" fill="#999999" sketch:type="MSShapeGroup"></path>
            <path d="M431.521811,119.605254 L450.297102,119.605254 L450.297102,119.81385 L431.521811,119.81385 L431.521811,119.605254 Z" id="Fill-1020-Copy-2" fill="#999999" sketch:type="MSShapeGroup"></path>
            <path d="M458.796933,122.634865 L457.938634,122.634865 L457.938634,120.495938 L457.080335,120.495938 L457.080335,123.449694 L458.796933,123.449694 L458.796933,122.634865" id="Fill-1018-Copy-3" fill="#999999" sketch:type="MSShapeGroup"></path>
            <path d="M474.698396,120.495938 L474.698396,122.634865 L473.946526,122.634865 L473.946526,123.449694 L475.556695,123.449694 L475.556695,120.495938 L474.698396,120.495938" id="Fill-1019-Copy-3" fill="#999999" sketch:type="MSShapeGroup"></path>
            <path d="M457.080335,119.605254 L475.855626,119.605254 L475.855626,119.81385 L457.080335,119.81385 L457.080335,119.605254 Z" id="Fill-1020-Copy-3" fill="#999999" sketch:type="MSShapeGroup"></path>
            <path d="M485.633383,122.634865 L484.775084,122.634865 L484.775084,120.495938 L483.916785,120.495938 L483.916785,123.449694 L485.633383,123.449694 L485.633383,122.634865" id="Fill-1018-Copy-4" fill="#999999" sketch:type="MSShapeGroup"></path>
            <path d="M501.534846,120.495938 L501.534846,122.634865 L500.782977,122.634865 L500.782977,123.449694 L502.393145,123.449694 L502.393145,120.495938 L501.534846,120.495938" id="Fill-1019-Copy-4" fill="#999999" sketch:type="MSShapeGroup"></path>
            <path d="M483.916785,119.605254 L502.692076,119.605254 L502.692076,119.81385 L483.916785,119.81385 L483.916785,119.605254 Z" id="Fill-1020-Copy-4" fill="#999999" sketch:type="MSShapeGroup"></path>
            <path d="M390.971116,147.216462 L518.649103,147.216462 L518.649103,151.934323 L390.971116,151.934323 L390.971116,147.216462 Z" id="Fill-1024-Copy" fill="#D1D1D1" sketch:type="MSShapeGroup"></path>
            <path d="M449.444277,122.277306 L449.444277,209.218764 C449.444277,211.245244 448.580828,213.076165 447.181801,214.404337 C445.782773,215.731694 443.854175,216.552227 441.719586,216.552227 C439.584996,216.552227 437.656398,215.731694 436.257371,214.404337 C434.859202,213.076165 433.994894,211.245244 433.994894,209.218764 L433.994894,122.277306 L433.136595,122.277306 L433.136595,209.218764 C433.136595,213.719066 436.9792,217.367056 441.719586,217.367056 C446.459971,217.367056 450.302576,213.719066 450.302576,209.218764 L450.302576,122.277306 L449.444277,122.277306" id="Fill-1025-Copy" fill="#999999" sketch:type="MSShapeGroup"></path>
            <path d="M475.253394,161.467408 C474.30669,162.129865 471.766125,163.735078 471.04687,164.619982 L470.365381,164.619982 C468.096038,162.666837 465.094567,161.467408 461.790116,161.467408 C460.687201,161.467408 459.627202,161.623041 458.610118,161.879712 C458.704531,162.398758 458.713114,162.932471 458.641875,163.454777 C458.676207,163.970564 458.632433,164.492054 458.50798,164.993174 C458.701097,165.55948 458.792077,166.163269 458.773194,166.764613 C458.834134,167.387142 458.771478,168.01945 458.59896,168.619164 C458.745729,169.381844 458.713114,170.179562 458.500255,170.925131 C458.492531,171.148394 458.475365,171.370842 458.435883,171.591661 C458.546604,172.054484 458.592952,172.534418 458.568061,173.010278 C458.599818,173.415249 458.565486,173.820219 458.499397,174.2203 C458.568919,174.597566 458.592952,174.982165 458.574927,175.36595 C458.62385,175.653584 458.653033,175.944478 458.643591,176.237817 C458.927688,177.147166 458.942279,178.142073 458.683073,179.05957 C458.694231,179.450688 458.662474,179.842621 458.582652,180.224776 L475.320341,180.224776 C475.35639,180.114774 475.395872,180.006402 475.439645,179.898844 C475.389863,176.943459 475.479985,174.054889 475.253394,171.057948 C475.034528,168.157156 475.279143,164.36983 475.253394,161.467408" id="Fill-1026-Copy" fill="#ADC9D2" sketch:type="MSShapeGroup"></path>
            <path d="M475.330641,180.171775 L458.592952,180.171775 C458.566344,180.301333 458.534587,180.429261 458.497681,180.55556 C458.8513,181.576541 458.860741,182.719746 458.516563,183.744801 C458.539737,183.961546 458.552612,184.17992 458.547462,184.398294 C458.663332,185.032231 458.653033,185.688169 458.521713,186.318032 C458.792077,187.166269 458.842717,188.085396 458.637583,188.953189 C458.939704,189.976615 458.892498,191.099449 458.513988,192.0968 C458.843575,192.999631 458.894215,194.004315 458.671915,194.939739 C458.870182,195.849089 458.832417,196.813032 458.512272,197.686528 C458.813535,198.662694 458.806668,199.737453 458.484806,200.707915 C458.752595,201.596079 458.769761,202.564096 458.522571,203.458778 C458.706247,204.203532 458.722555,204.990657 458.524288,205.730522 C458.567203,205.975786 458.586944,206.226753 458.574069,206.484239 C458.531154,207.315365 458.489098,208.136713 458.435883,208.95969 C458.496822,209.257103 458.531154,209.559404 458.537162,209.86415 C458.589518,210.115118 458.627284,210.36853 458.636725,210.624386 C458.725988,210.791426 458.807526,210.963355 458.880482,211.140173 C459.026393,211.495438 459.102781,211.848259 459.131963,212.198636 C459.386878,212.604421 459.566263,213.052577 459.671834,213.519474 C460.203979,213.988816 460.626262,214.590974 460.855428,215.338173 C461.724885,215.884923 462.825224,216.332264 463.608851,216.814643 C464.492899,217.358949 465.462777,217.627843 466.501319,217.627843 C467.042047,217.627843 467.601658,217.555323 468.177577,217.410283 L468.325204,217.380135 C469.035876,216.85294 469.961981,216.52212 471.10266,216.501749 L471.128409,216.487082 C471.597898,215.804255 472.271663,215.249356 473.147986,214.925054 C473.442383,213.930148 474.056925,213.03628 474.994188,212.453677 C475.011354,211.941965 475.101475,211.435141 475.273993,210.954392 C475.15469,210.29438 475.172714,209.609109 475.322058,208.954801 C475.233653,208.346938 475.255111,207.722779 475.387289,207.121435 C475.033669,206.044231 475.064568,204.839914 475.480843,203.785525 C475.39158,203.080698 475.328066,202.373426 475.304034,201.662895 C475.291159,201.283184 475.324633,200.931993 475.389863,200.601987 C475.274851,200.044644 475.255969,199.467745 475.334074,198.903068 C475.081734,197.983126 475.089459,196.990664 475.380422,196.08213 C475.216487,195.498712 475.170139,194.885146 475.225928,194.280542 C474.916941,193.295414 474.925524,192.210062 475.254252,191.231452 C475.061993,190.318843 475.123791,189.350011 475.450803,188.478144 C475.246528,187.724427 475.218204,186.928339 475.373556,186.165659 C475.313475,185.818541 475.294592,185.464091 475.309183,185.11127 C475.127224,184.399109 475.0989,183.646207 475.239661,182.925083 C475.011354,182.023067 475.042252,181.05505 475.330641,180.171775" id="Fill-1027-Copy" fill="#8AAFBD" sketch:type="MSShapeGroup"></path>
            <path d="M474.743564,122.277306 L474.743564,209.218764 C474.743564,211.245244 473.880116,213.076165 472.481088,214.404337 C471.082061,215.731694 469.153463,216.552227 467.018873,216.552227 C464.884284,216.552227 462.956544,215.731694 461.556658,214.404337 C460.158489,213.076165 459.294182,211.245244 459.294182,209.218764 L459.294182,122.277306 L458.435883,122.277306 L458.435883,209.218764 C458.435883,213.719066 462.278488,217.367056 467.018873,217.367056 C471.759259,217.367056 475.601863,213.719066 475.601863,209.218764 L475.601863,122.277306 L474.743564,122.277306" id="Fill-1031-Copy" fill="#999999" sketch:type="MSShapeGroup"></path>
            <path d="M501.489692,161.467408 C500.542988,162.129865 498.002423,163.735078 497.283169,164.619982 L496.601679,164.619982 C494.332337,162.666837 491.330865,161.467408 488.026414,161.467408 C486.9235,161.467408 485.8635,161.623041 484.846416,161.879712 C484.940829,162.398758 484.949412,162.932471 484.878173,163.454777 C484.912505,163.970564 484.868732,164.492054 484.744278,164.993174 C484.937396,165.55948 485.028375,166.163269 485.009493,166.764613 C485.070432,167.387142 485.007776,168.01945 484.835258,168.619164 C484.982027,169.381844 484.949412,170.179562 484.736554,170.925131 C484.728829,171.148394 484.710805,171.370842 484.672181,171.591661 C484.782902,172.054484 484.82925,172.534418 484.804359,173.010278 C484.836116,173.415249 484.801784,173.820219 484.735695,174.2203 C484.805218,174.597566 484.82925,174.982165 484.811226,175.36595 C484.860149,175.653584 484.889331,175.944478 484.87989,176.237817 C485.163987,177.147166 485.178578,178.142073 484.919371,179.05957 C484.931388,179.450688 484.897914,179.842621 484.81895,180.224776 L501.55664,180.224776 C501.592688,180.114774 501.63217,180.006402 501.675943,179.898844 C501.626162,176.943459 501.716283,174.054889 501.489692,171.057948 C501.270826,168.157156 501.515441,164.36983 501.489692,161.467408" id="Fill-1032-Copy" fill="#ADC9D2" sketch:type="MSShapeGroup"></path>
            <path d="M501.566939,180.171775 L484.82925,180.171775 C484.802643,180.301333 484.770886,180.429261 484.733979,180.55556 C485.087598,181.576541 485.097039,182.719746 484.752861,183.744801 C484.776035,183.961546 484.78891,184.17992 484.78376,184.398294 C484.89963,185.032231 484.889331,185.688169 484.758011,186.318032 C485.028375,187.166269 485.078157,188.085396 484.873881,188.953189 C485.175144,189.976615 485.128796,191.099449 484.750286,192.0968 C485.079873,192.999631 485.130513,194.004315 484.907355,194.939739 C485.106481,195.849089 485.068715,196.813032 484.74857,197.686528 C485.049833,198.662694 485.042966,199.737453 484.721104,200.707915 C484.988894,201.596079 485.00606,202.564096 484.758869,203.458778 C484.942545,204.203532 484.958853,204.990657 484.760586,205.730522 C484.803501,205.975786 484.823242,206.226753 484.810367,206.484239 C484.767452,207.315365 484.725396,208.136713 484.672181,208.95969 C484.73312,209.257103 484.767452,209.559404 484.773461,209.86415 C484.825817,210.115118 484.863582,210.36853 484.873023,210.624386 C484.962286,210.791426 485.044683,210.963355 485.11678,211.140173 C485.262691,211.495438 485.33908,211.848259 485.368262,212.198636 C485.623177,212.604421 485.802561,213.052577 485.908132,213.519474 C486.440277,213.988816 486.86256,214.590974 487.091726,215.338173 C487.961183,215.884923 489.061522,216.332264 489.845149,216.814643 C490.729197,217.358949 491.699075,217.627843 492.737617,217.627843 C493.278345,217.627843 493.837956,217.555323 494.413875,217.410283 L494.561503,217.380135 C495.272174,216.85294 496.198279,216.52212 497.338958,216.501749 L497.364707,216.487082 C497.834197,215.804255 498.507103,215.249356 499.384285,214.925054 C499.677823,213.930148 500.293223,213.03628 501.230486,212.453677 C501.247652,211.941965 501.336915,211.435141 501.510291,210.954392 C501.390988,210.29438 501.409012,209.609109 501.558356,208.954801 C501.469951,208.346938 501.491409,207.722779 501.623587,207.121435 C501.269968,206.044231 501.300866,204.839914 501.717141,203.785525 C501.627878,203.080698 501.564364,202.373426 501.540332,201.662895 C501.527457,201.283184 501.560931,200.931993 501.626162,200.601987 C501.51115,200.044644 501.492267,199.467745 501.570372,198.903068 C501.318032,197.983126 501.325757,196.990664 501.61672,196.08213 C501.452785,195.498712 501.406437,194.885146 501.461368,194.280542 C501.153239,193.295414 501.161822,192.210062 501.49055,191.231452 C501.298292,190.318843 501.360089,189.350011 501.687101,188.478144 C501.482826,187.724427 501.453644,186.928339 501.608996,186.165659 C501.549773,185.818541 501.530891,185.464091 501.545482,185.11127 C501.363522,184.399109 501.335198,183.646207 501.475959,182.925083 C501.247652,182.023067 501.278551,181.05505 501.566939,180.171775" id="Fill-1033-Copy" fill="#8AAFBD" sketch:type="MSShapeGroup"></path>
            <path d="M500.979863,122.277306 L500.979863,209.218764 C500.979863,211.245244 500.116414,213.076165 498.717386,214.404337 C497.318359,215.731694 495.389761,216.552227 493.255171,216.552227 C491.120582,216.552227 489.192842,215.731694 487.792956,214.404337 C486.394787,213.076165 485.531339,211.245244 485.53048,209.218764 L485.53048,122.277306 L484.672181,122.277306 L484.672181,209.218764 C484.67304,213.719066 488.514786,217.367056 493.255171,217.367056 C497.995557,217.367056 501.838162,213.719066 501.838162,209.218764 L501.838162,122.277306 L500.979863,122.277306" id="Fill-1037-Copy" fill="#999999" sketch:type="MSShapeGroup"></path>
            <path d="M0.7265625,248.9375 C43.7265625,239.9375 52.3698183,246.57207 81.7265625,247.9375 C92.0487367,248.417601 102.423666,247.14497 112.726562,247.9375 C169.242677,252.284893 150.726562,256.9375 182.726562,248.9375 C185.048698,248.356966 218.135069,247.320909 225.726562,246.9375 C275.356456,244.43094 320.012581,254.055499 368.726562,251.9375 C381.322263,251.389861 394.886568,246.845786 407.726562,246.9375 C450.730633,247.244672 493.721395,248.9375 536.726562,248.9375 C543.914749,248.9375 552.996675,245.114602 559.726562,244.9375 C583.718257,244.30614 607.733875,244.345088 631.726562,244.9375 C648.377588,245.348636 666.062464,249.391136 682.726562,249.9375 C712.398636,250.910355 738.867722,247.563269 767.726562,248.9375" id="Path-1111" stroke-opacity="0.55" stroke="#94896C" sketch:type="MSShapeGroup"></path>
            <path d="M19.7265625,259.9375 C62.7265625,250.9375 71.3698183,257.57207 100.726562,258.9375 C111.048737,259.417601 121.423666,258.14497 131.726562,258.9375 C188.242677,263.284893 169.726562,267.9375 201.726562,259.9375 C204.048698,259.356966 237.135069,258.320909 244.726562,257.9375 C294.356456,255.43094 339.012581,265.055499 387.726562,262.9375 C400.322263,262.389861 413.886568,257.845786 426.726562,257.9375 C469.730633,258.244672 512.721395,259.9375 555.726562,259.9375 C562.914749,259.9375 571.996675,256.114602 578.726562,255.9375 C602.718257,255.30614 626.733875,255.345088 650.726562,255.9375 C667.377588,256.348636 685.062464,260.391136 701.726562,260.9375 C731.398636,261.910355 757.867722,258.563269 786.726562,259.9375" id="Path-1111-Copy" stroke-opacity="0.55" stroke="#94896C" sketch:type="MSShapeGroup"></path>
            <path d="M12.7265625,235.9375 C55.7265625,226.9375 64.3698183,233.57207 93.7265625,234.9375 C104.048737,235.417601 114.423666,234.14497 124.726562,234.9375 C181.242677,239.284893 162.726562,243.9375 194.726562,235.9375 C197.048698,235.356966 230.135069,234.320909 237.726562,233.9375 C287.356456,231.43094 332.012581,241.055499 380.726562,238.9375 C393.322263,238.389861 406.886568,233.845786 419.726562,233.9375 C462.730633,234.244672 505.721395,235.9375 548.726562,235.9375 C555.914749,235.9375 564.996675,232.114602 571.726562,231.9375 C595.718257,231.30614 619.733875,231.345088 643.726562,231.9375 C660.377588,232.348636 678.062464,236.391136 694.726562,236.9375 C724.398636,237.910355 750.867722,234.563269 779.726562,235.9375" id="Path-1111-Copy-2" stroke-opacity="0.55" stroke="#94896C" sketch:type="MSShapeGroup"></path>
            <path d="M691.679635,2.73640927 L697.701017,2.73640927 L697.701017,224.3545 L691.679635,224.3545 L691.679635,2.73640927 Z" id="Fill-8-Copy" fill="#3D3C3E" sketch:type="MSShapeGroup"></path>
            <path d="M600.307671,181.811537 L694.728157,181.811537 L694.728157,184.958117 L600.307671,184.958117 L600.307671,181.811537 Z" id="Fill-9-Copy" fill="#3D3C3E" sketch:type="MSShapeGroup"></path>
            <path d="M602.536255,217.311012 L706.934311,217.311012 L706.934311,225.830593 L602.536255,225.830593 L602.536255,217.311012 Z" id="Fill-10-Copy" fill="#3D3C3E" sketch:type="MSShapeGroup"></path>
            <path d="M637.450746,222.321253 L648.121023,222.321253 L645.785007,211.788871 L639.826228,211.788871 L637.450746,222.321253" id="Fill-11-Copy" fill="#3D3C3E" sketch:type="MSShapeGroup"></path>
            <path d="M641.901636,209.585559 C641.901636,209.585559 651.82681,210.616858 649.316597,199.957458 C647.418116,191.896151 643.028476,186.5448 643.028476,186.5448 C643.028476,186.5448 643.80556,194.344133 638.872232,201.287537 C632.620175,210.085692 641.901636,209.585559 641.901636,209.585559" id="Fill-12-Copy" fill="#FFB200" sketch:type="MSShapeGroup"></path>
            <path d="M650.403754,201.355687 C648.944537,195.159578 644.613214,189.344586 644.613214,189.344586 C644.613214,189.344586 645.066609,197.399803 641.274738,202.736666 C638.795521,206.225523 639.256156,209.11472 639.256156,209.11472 L643.098499,210.82747 C643.098499,210.82747 652.333163,209.548752 650.403754,201.355687 Z" id="Fill-12-Copy-2" fill="#FC5F0B" sketch:type="MSShapeGroup" transform="translate(644.945604, 200.086028) rotate(-345.000000) translate(-644.945604, -200.086028) "></path>
            <path d="M702.822558,27.9804802 L706.886259,27.9804802 L706.886259,38.7171012 L702.822558,38.7171012 L702.822558,27.9804802 Z" id="Fill-13-Copy" fill="#3D3C3E" sketch:type="MSShapeGroup"></path>
            <path d="M648.593668,31.135989 L703.335912,31.135989 L703.335912,35.6869827 L648.593668,35.6869827 L648.593668,31.135989 Z" id="Fill-14-Copy" fill="#3D3C3E" sketch:type="MSShapeGroup"></path>
            <path d="M704.847604,27.191603 C705.966278,27.191603 706.87265,27.4716197 706.87265,27.8173105 C706.87265,28.1630012 705.966278,28.443018 704.847604,28.443018 C703.72961,28.443018 702.822558,28.1630012 702.822558,27.8173105 C702.822558,27.4716197 703.72961,27.191603 704.847604,27.191603" id="Fill-15-Copy" fill="#1C191A" sketch:type="MSShapeGroup"></path>
            <path d="M704.847604,38.235884 C705.966278,38.235884 706.87265,38.5159007 706.87265,38.8615915 C706.87265,39.2072822 705.966278,39.487299 704.847604,39.487299 C703.72961,39.487299 702.822558,39.2072822 702.822558,38.8615915 C702.822558,38.5159007 703.72961,38.235884 704.847604,38.235884" id="Fill-16-Copy" fill="#3D3C3E" sketch:type="MSShapeGroup"></path>
            <path d="M643.615305,27.191603 C646.199688,27.191603 648.294821,27.4716197 648.294821,27.8165888 C648.294821,28.1608361 646.199688,28.4408529 643.615305,28.4408529 C641.030921,28.4408529 638.936469,28.1608361 638.936469,27.8165888 C638.936469,27.4716197 641.030921,27.191603 643.615305,27.191603" id="Fill-17-Copy" fill="#1C191A" sketch:type="MSShapeGroup"></path>
            <path d="M643.671102,38.235884 C646.286106,38.235884 648.406416,38.515179 648.406416,38.8601481 C648.406416,39.2051172 646.286106,39.4851339 643.671102,39.4851339 C641.056098,39.4851339 638.936469,39.2051172 638.936469,38.8601481 C638.936469,38.515179 641.056098,38.235884 643.671102,38.235884" id="Fill-18-Copy" fill="#3D3C3E" sketch:type="MSShapeGroup"></path>
            <path d="M630.939526,93.2924072 L629.202314,93.2924072 L630.792547,94.0357506 C630.877604,93.8343984 630.940887,93.5666504 630.939526,93.2924072 L629.202314,93.2924072 L630.792547,94.0357506 L629.405771,93.386949 L630.335278,94.6708401 C630.42714,94.5914539 630.620391,94.4326816 630.792547,94.0357506 L629.405771,93.386949 L630.335278,94.6708401 L629.785467,93.9116195 L630.241375,94.7394009 L630.335278,94.6708401 L629.785467,93.9116195 L630.241375,94.7394009 L630.034515,94.3641208 L630.224363,94.7495046 L630.241375,94.7394009 L630.034515,94.3641208 L630.224363,94.7495046 L630.2196,94.7394009 L630.224363,94.7495046 L630.2196,94.7394009 L630.224363,94.7495046 C630.244097,94.7372358 630.404005,94.6708401 630.639443,94.6058878 C631.055884,94.4868085 631.711847,94.3540171 632.522273,94.2363812 C634.966482,93.8776999 638.811075,93.6359329 643.096606,93.6373763 C646.92827,93.6366546 650.402013,93.8286248 652.846222,94.1266839 C654.062882,94.2731875 655.034578,94.455054 655.580986,94.6145481 C655.716398,94.6527978 655.82323,94.6896041 655.891276,94.7163068 L655.97157,94.750948 L656.396176,93.8459455 L655.729326,94.5503175 C655.900802,94.7264105 655.97225,94.7473395 655.97157,94.750948 L656.396176,93.8459455 L655.729326,94.5503175 L656.853445,93.3624114 L655.434007,94.1108066 C655.534715,94.3244277 655.64563,94.4608276 655.729326,94.5503175 L656.853445,93.3624114 L655.434007,94.1108066 L656.986815,93.2924072 L655.254366,93.2924072 C655.252325,93.602735 655.333299,93.9007941 655.434007,94.1108066 L656.986815,93.2924072 L655.254366,93.2924072 L659.143189,93.2924072 C659.14455,92.9575418 659.068339,92.6306151 658.958785,92.3708057 C658.738996,91.8598474 658.453204,91.5899343 658.226611,91.4001292 C658.007503,91.2233145 657.812892,91.1121738 657.623724,91.0169104 C657.269885,90.8429825 656.928295,90.7275117 656.546558,90.6185361 C655.88311,90.4323394 655.105346,90.2836707 654.191489,90.1494359 C651.462168,89.7525049 647.520269,89.5136247 643.096606,89.512903 C639.140417,89.5136247 635.563245,89.7055949 632.904011,90.0289132 C631.56827,90.1927374 630.474772,90.3818209 629.593578,90.6329699 C629.147877,90.7650397 628.760016,90.8963877 628.329966,91.1475368 C628.11426,91.2796065 627.875419,91.4391006 627.610721,91.7508718 C627.480753,91.9074791 627.343981,92.1088313 627.234427,92.3715274 C627.124873,92.6313368 627.049342,92.9582635 627.050703,93.2924072 L630.939526,93.2924072" id="Fill-19-Copy" fill="#3D3C3E" sketch:type="MSShapeGroup"></path>
            <path d="M657.936626,91.0906574 C658.692616,91.4782063 659.448606,92.3767137 659.347898,93.322131 C659.251953,94.2256901 658.828028,94.9683118 658.078842,94.9683118 C657.331698,94.9683118 657.573942,93.1958348 656.724729,93.322131 C652.239824,93.9875316 653.104687,93.2131554 657.936626,91.0906574" id="Fill-20-Copy" fill="#565556" sketch:type="MSShapeGroup"></path>
            <path d="M627.050685,93.3463269 C627.050685,94.163283 628.092467,94.4158754 628.989993,94.4158754 C629.887518,94.4158754 630.614929,93.7540833 630.614929,92.9371272 C630.614929,92.1201712 630.676851,92.1389352 629.318655,91.5074541 C628.738223,91.2382628 628.806949,91.031137 628.601451,91.106193 C627.513397,91.5074541 627.050685,92.6643274 627.050685,93.3463269" id="Fill-21-Copy" fill="#565556" sketch:type="MSShapeGroup"></path>
            <path d="M664.113435,136.845536 C663.348599,136.845536 662.674265,137.256901 662.276877,137.881887 C661.665824,137.675482 661.016667,137.55929 660.34029,137.55929 C658.27918,137.55929 656.451467,138.598527 655.2838,140.205015 L654.94289,140.205015 C653.808565,139.115259 652.308833,138.445528 650.65804,138.445528 C649.014731,138.445528 647.521124,139.109486 646.38884,140.190581 C645.226616,138.90669 643.594876,138.103446 641.783494,138.103446 C640.204829,138.103446 638.762256,138.71472 637.647664,139.720759 C636.741973,139.012779 635.656641,138.54873 634.476045,138.42893 L634.449507,138.42893 C634.340634,138.42893 634.233121,138.420991 634.129011,138.40367 C634.041912,138.400062 633.954814,138.398618 633.867715,138.398618 C632.472093,138.398618 631.184665,138.878544 630.134036,139.683953 C628.969091,138.378411 627.325102,137.560012 625.496709,137.560012 C623.805768,137.560012 622.268611,138.257167 621.12544,139.394554 C621.12544,139.394554 620.483087,141.981101 619.955051,144.806527 C619.786297,145.708643 619.74615,145.949688 619.549497,146.79912 L613.679178,176.367589 C613.679178,178.640199 615.547718,180.483402 617.851752,180.483402 L669.599295,180.483402 C671.90333,180.483402 673.771189,178.640199 673.771189,176.367589 L666.728439,143.958538 L666.706664,143.875544 C666.634536,142.734548 666.293626,141.67366 665.754702,140.75711 C666.10718,140.340693 666.327649,139.796537 666.327649,139.193924 C666.327649,137.897042 665.33622,136.845536 664.113435,136.845536" id="Fill-22-Copy" fill-opacity="0.97" fill="#9FA6A1" sketch:type="MSShapeGroup"></path>
            <path d="M655.265051,117.912483 C654.042266,117.912483 653.050837,118.963989 653.050837,120.260871 C653.050837,121.557752 654.042266,122.609258 655.265051,122.609258 C656.487836,122.609258 657.478584,121.557752 657.478584,120.260871 C657.478584,118.963989 656.487836,117.912483 655.265051,117.912483" id="Fill-23-Copy" fill-opacity="0.97" fill="#9FA6A1" sketch:type="MSShapeGroup"></path>
            <path d="M634.39212,133.690027 C633.209482,133.690027 632.250715,134.706892 632.250715,135.960472 C632.250715,137.099303 633.040728,138.041834 634.071623,138.205658 C634.187982,138.211431 634.30366,138.21937 634.418658,138.230917 C635.588367,138.215761 636.532844,137.205392 636.532844,135.960472 C636.532844,134.706892 635.574077,133.690027 634.39212,133.690027" id="Fill-24-Copy" fill-opacity="0.97" fill="#9FA6A1" sketch:type="MSShapeGroup"></path>
            <path d="M634.4793,138.42329 C634.58341,138.440611 634.690923,138.44855 634.799796,138.44855 L634.826334,138.44855 C634.711336,138.437003 634.595658,138.429064 634.4793,138.42329" id="Fill-25-Copy" fill="#6D6C6E" sketch:type="MSShapeGroup"></path>
            <path d="M656.438258,93.1310168 L672.932583,174.960856 L673.952591,174.729193 L672.909447,174.729193 C672.910808,176.050612 672.470551,177.227692 671.796216,178.052587 C671.116438,178.878925 670.237965,179.345139 669.281921,179.346582 L617.907949,179.346582 C616.950543,179.345139 616.072751,178.878925 615.392973,178.051865 C614.718638,177.226971 614.279061,176.04989 614.279742,174.729193 L613.236598,174.729193 L614.257967,174.954361 L630.275971,93.1245216 L628.233914,92.6749071 L612.193455,174.615887 L612.193455,174.729193 C612.194816,176.568787 612.799744,178.253218 613.815669,179.499581 C614.826831,180.744501 616.284374,181.560013 617.907949,181.55857 L669.281921,181.55857 C670.904135,181.560013 672.361678,180.745222 673.37284,179.500303 C674.388765,178.254661 674.995054,176.569509 674.995734,174.729193 L674.995734,174.612278 L658.478274,92.6684118 L656.438258,93.1310168" id="Fill-26-Copy" fill="#4F4F4F" sketch:type="MSShapeGroup"></path>
            <path d="M641.165053,138.856817 C641.165053,139.034354 642.327958,139.178692 643.762365,139.178692 C645.196773,139.178692 646.359677,139.034354 646.359677,138.856817 L646.357636,138.853931 L646.357636,0.369777623 L641.167775,0.369777623 L641.167775,138.853931 L641.165053,138.856817 L641.165053,138.856817 Z M642.144914,1.84275226 L645.451945,1.84275226 L645.451945,5.35017838 L642.144914,5.35017838 L642.144914,1.84275226 Z M642.144914,7.59536411 L645.451945,7.59536411 L645.451945,11.1027902 L642.144914,11.1027902 L642.144914,7.59536411 Z M642.144914,13.18343 L645.451945,13.18343 L645.451945,16.4685748 L642.144914,16.4685748 L642.144914,13.18343 Z M642.144914,18.9367636 L645.451945,18.9367636 L645.451945,22.2219084 L642.144914,22.2219084 L642.144914,18.9367636 Z M642.144914,24.8517563 L645.451945,24.8517563 L645.451945,27.8092526 L642.144914,27.8092526 L642.144914,24.8517563 Z M642.144914,30.6043681 L645.451945,30.6043681 L645.451945,33.5618645 L642.144914,33.5618645 L642.144914,30.6043681 Z M642.144914,36.1931558 L645.451945,36.1931558 L645.451945,39.4783006 L642.144914,39.4783006 L642.144914,36.1931558 Z M642.144914,41.9450459 L645.451945,41.9450459 L645.451945,45.2301907 L642.144914,45.2301907 L642.144914,41.9450459 Z M642.144914,47.861482 L645.451945,47.861482 L645.451945,50.8189784 L642.144914,50.8189784 L642.144914,47.861482 Z M642.144914,53.6133722 L645.451945,53.6133722 L645.451945,56.5715902 L642.144914,56.5715902 L642.144914,53.6133722 Z M642.144914,59.2021598 L645.451945,59.2021598 L645.451945,62.4873046 L642.144914,62.4873046 L642.144914,59.2021598 Z M642.144914,64.9533283 L645.451945,64.9533283 L645.451945,68.2384731 L642.144914,68.2384731 L642.144914,64.9533283 Z M642.144914,70.870486 L645.451945,70.870486 L645.451945,73.8279824 L642.144914,73.8279824 L642.144914,70.870486 Z M642.144914,76.6216545 L645.451945,76.6216545 L645.451945,79.5791509 L642.144914,79.5791509 L642.144914,76.6216545 Z M642.144914,82.2104421 L645.451945,82.2104421 L645.451945,85.4963086 L642.144914,85.4963086 L642.144914,82.2104421 Z M642.144914,87.963054 L645.451945,87.963054 L645.451945,91.2481988 L642.144914,91.2481988 L642.144914,87.963054 Z M642.144914,93.7156659 L645.451945,93.7156659 L645.451945,96.8362647 L642.144914,96.8362647 L642.144914,93.7156659 Z M642.144914,99.4668343 L645.451945,99.4668343 L645.451945,102.588877 L642.144914,102.588877 L642.144914,99.4668343 Z M642.144914,105.383992 L645.451945,105.383992 L645.451945,108.341488 L642.144914,108.341488 L642.144914,105.383992 Z M642.144914,111.135882 L645.451945,111.135882 L645.451945,114.093379 L642.144914,114.093379 L642.144914,111.135882 Z M642.144914,116.72467 L645.451945,116.72467 L645.451945,120.009815 L642.144914,120.009815 L642.144914,116.72467 Z M642.144914,122.47656 L645.451945,122.47656 L645.451945,125.761705 L642.144914,125.761705 L642.144914,122.47656 Z M642.144914,127.843788 L645.451945,127.843788 L645.451945,131.351214 L642.144914,131.351214 L642.144914,127.843788 Z M642.144914,133.594957 L645.451945,133.594957 L645.451945,137.102383 L642.144914,137.102383 L642.144914,133.594957 Z" id="Fill-27-Copy" fill="#636366" sketch:type="MSShapeGroup"></path>
            <path d="M655.253686,93.3387971 L656.990897,93.3387971 L655.401345,92.594732 C655.315607,92.7960843 655.253005,93.0638322 655.253686,93.3387971 L656.990897,93.3387971 L655.401345,92.594732 L656.788121,93.2435337 L655.857933,91.9596425 C655.766752,92.0397504 655.573501,92.1978011 655.401345,92.594732 L656.788121,93.2435337 L655.857933,91.9596425 L656.407744,92.7188631 L655.951836,91.8918034 L655.857933,91.9596425 L656.407744,92.7188631 L655.951836,91.8918034 L656.159376,92.2670836 L655.968848,91.8816997 L655.951836,91.8918034 L656.159376,92.2670836 L655.968848,91.8816997 L655.972931,91.8896383 L655.969528,91.8816997 L655.968848,91.8816997 L655.972931,91.8896383 L655.969528,91.8816997 C655.949115,91.8932468 655.789887,91.9596425 655.554448,92.0245948 C655.138008,92.1436741 654.481365,92.2771873 653.670938,92.3948232 C651.22741,92.7527827 647.382136,92.9945497 643.096606,92.993828 C639.264941,92.993828 635.791879,92.8025795 633.34699,92.5037987 C632.130329,92.3572951 631.159314,92.1761503 630.612906,92.0166562 C630.477494,91.9776848 630.370662,91.9408785 630.301936,91.9141759 L630.221642,91.8795346 L629.797035,92.7852589 L630.464565,92.0801652 C630.29309,91.9040722 630.221642,91.8831431 630.221642,91.8795346 L629.797035,92.7852589 L630.464565,92.0801652 L629.340447,93.2680712 L630.759204,92.519676 C630.658496,92.306055 630.548262,92.1696551 630.464565,92.0801652 L629.340447,93.2680712 L630.759204,92.519676 L629.206397,93.3387971 L630.939526,93.3387971 C630.940887,93.0277476 630.859912,92.7296885 630.759204,92.519676 L629.206397,93.3387971 L630.939526,93.3387971 L627.050703,93.3387971 C627.049342,93.6729408 627.124873,93.9998675 627.234427,94.2603986 C627.454895,94.7706353 627.740688,95.0405483 627.967281,95.2303535 C628.186389,95.4071681 628.381,95.5183088 628.570168,95.6135722 C628.923326,95.7882218 629.265597,95.902971 629.647334,96.0119466 C630.310782,96.1981433 631.087866,96.3468119 632.002403,96.4810468 C634.731043,96.8779777 638.673622,97.116858 643.096606,97.1183013 C647.053475,97.1175796 650.629967,96.9248877 653.289881,96.6022911 C654.624941,96.4377452 655.71912,96.2493834 656.599633,95.9975127 C657.046014,95.865443 657.433196,95.7340949 657.863926,95.4829459 C658.079632,95.3508761 658.317792,95.1913821 658.582491,94.8796108 C658.713139,94.7230035 658.849911,94.5216513 658.959465,94.2589552 C659.069019,93.9991458 659.143869,93.6722191 659.143189,93.3387971 L655.253686,93.3387971" id="Fill-28-Copy" fill="#565556" sketch:type="MSShapeGroup"></path>
            <path d="M638.936469,27.9804802 L648.420025,27.9804802 L648.420025,38.7171012 L638.936469,38.7171012 L638.936469,27.9804802 Z" id="Fill-29-Copy" fill="#3D3C3E" sketch:type="MSShapeGroup"></path>
            <path d="M694.667531,1.94753205 C696.317644,1.94753205 697.655426,2.22754879 697.655426,2.57251786 C697.655426,2.91748693 696.317644,3.19678198 694.667531,3.19678198 C693.017418,3.19678198 691.679635,2.91748693 691.679635,2.57251786 C691.679635,2.22754879 693.017418,1.94753205 694.667531,1.94753205" id="Fill-30-Copy" fill="#1C191A" sketch:type="MSShapeGroup"></path>
            <rect id="Rectangle-1" fill-opacity="0.21" fill="#9A602E" sketch:type="MSShapeGroup" x="1" y="226" width="786" height="42" rx="8"></rect>
        </g>
    </g>
</svg>